<svg width="1208" height="1165" viewBox="0 0 1208 1165" fill="none" xmlns="http://www.w3.org/2000/svg">
<path fill-rule="evenodd" clip-rule="evenodd" d="M719.301 1.09752C715.158 5.42278 716.104 18.3748 720.744 20.8586C722.039 21.5515 722.7 21.1127 723.897 18.7661C724.683 17.225 725.075 14.6428 725.759 6.4865C726.108 2.32372 725.889 1.65131 723.83 0.58679C722.038 -0.340194 720.514 -0.168085 719.301 1.09752ZM793.55 36.4822C792.37 38.8557 792.587 43.6696 794.171 50.2562C794.889 53.2423 795.551 55.9215 795.642 56.2103C795.937 57.1437 797.744 55.4445 798.882 53.1635C799.88 51.1639 799.928 50.7992 799.731 46.7289C799.617 44.3557 799.118 40.7399 798.623 38.6941L797.722 34.9741H796.011C794.434 34.9741 794.24 35.0931 793.55 36.4822ZM611.796 74.2854C610.23 76.6248 611.548 81.1584 614.287 82.8511C614.985 83.2826 615.67 83.6357 615.81 83.6357C616.137 83.6357 616.141 78.0879 615.814 76.4527C615.55 75.136 613.892 73.1795 613.039 73.1795C612.763 73.1795 612.204 73.677 611.796 74.2854ZM786.995 91.6528C783.714 94.9345 783.779 98.1739 787.359 109.776C788.529 113.567 789.104 116.251 789.265 118.672C789.473 121.82 789.564 122.12 790.256 121.94C790.675 121.83 791.349 122.041 791.754 122.407C792.46 123.047 792.509 122.929 792.938 119.542C794.815 104.738 794.281 96.2902 791.17 91.5784C789.894 89.6444 788.988 89.6605 786.995 91.6528ZM662.339 97.0712C662.286 97.7118 663.996 106.35 664.219 106.559C664.659 106.974 663.901 101.833 663.151 99.3201C662.721 97.8823 662.356 96.8705 662.339 97.0712ZM769.658 112.693C767.099 114.418 766.005 117.597 765.262 125.461C765.022 128.004 764.723 130.42 764.598 130.829C764.411 131.442 764.524 131.524 765.243 131.296C765.819 131.113 766.377 131.255 766.883 131.713C767.612 132.372 767.663 132.369 767.904 131.648C768.043 131.231 769.127 128.809 770.312 126.265C773.43 119.573 774.147 116.434 773.276 113.295C772.772 111.48 771.719 111.305 769.658 112.693ZM892.571 119.94C891.997 120.693 891.321 121.899 891.07 122.619C890.788 123.428 890.502 123.75 890.323 123.46C889.68 122.419 884.773 129.001 882.932 133.375C881.084 137.765 880.589 145.256 882.109 145.839C883.404 146.336 886.906 144.655 888.982 142.538C891.701 139.767 892.73 136.683 892.73 131.3C892.73 126.715 892.456 125.245 891.52 124.8C890.857 124.484 890.929 124.222 892.377 121.685C894.113 118.646 894.207 117.795 892.571 119.94ZM754.005 124.646C752.915 125.736 752.626 127.17 753.168 128.809C753.721 130.487 754.885 131.612 755.875 131.427C757.616 131.101 758.756 125.856 757.384 124.484C756.517 123.617 754.96 123.691 754.005 124.646ZM610.702 145.033C609.582 146.153 611.676 148.92 613.644 148.92C615.558 148.92 616.14 147.961 615.307 146.181C614.706 144.896 614.517 144.79 612.813 144.778C611.8 144.77 610.849 144.885 610.702 145.033ZM924.826 158.322C923.271 160.104 922.816 162.369 923.842 163.22C924.663 163.902 927.669 159.495 927.052 158.514C926.449 157.557 925.561 157.481 924.826 158.322ZM255.613 164.126C254.6 164.514 254.495 164.71 254.713 165.824C255.391 169.306 259.496 172.326 265.105 173.47L267.819 174.024V172.887C267.819 172.243 268.11 171.586 268.49 171.373C269.084 171.041 268.992 170.765 267.689 168.992C266.88 167.889 265.21 166.292 263.979 165.444C262.058 164.121 261.387 163.887 259.25 163.795C257.881 163.736 256.244 163.884 255.613 164.126ZM618.083 189.324C618.07 190.693 619.257 192.807 619.757 192.306C620.255 191.809 619.934 190.746 618.881 189.404L618.092 188.399L618.083 189.324ZM353.882 222.147C354.925 223.496 362.448 230.129 365.965 232.8C367.831 234.217 368.995 235.012 368.553 234.569C367.75 233.763 355.594 223.213 354.083 222.011C353.325 221.408 353.315 221.415 353.882 222.147ZM876.846 232.378C874.191 234.776 871.673 237.129 871.249 237.608C870.481 238.476 870.483 238.482 872.131 239.892C875.727 242.97 879 249.33 880.092 255.359C880.892 259.779 880.787 262.698 879.66 267.349C878.529 272.017 878.378 275.635 879.23 277.674C879.547 278.431 880.613 280.382 881.601 282.01C883.722 285.502 884.294 287.082 886.153 294.566C888.141 302.574 889.123 304.578 891.724 305.943C893.101 306.667 897.802 306.76 899.055 306.09C899.763 305.711 900.91 307.158 910.861 320.992C916.924 329.418 922.036 336.57 922.222 336.886C922.442 337.259 922.331 337.627 921.905 337.938C921.304 338.377 921.302 338.566 921.882 340.208C923.291 344.202 926.273 348.01 930.53 351.253C931.746 352.179 935.563 354.751 939.011 356.967L945.28 360.995L946.323 360.099C946.896 359.606 947.596 359.125 947.877 359.031C948.688 358.761 947.293 355.617 945.365 353.371C943.477 351.172 940.742 349.244 935.557 346.455C929.032 342.946 926.035 340.57 924.137 337.4C923.674 336.626 923.294 336.219 923.293 336.495C923.29 337.537 922.54 336.945 922.273 335.691C921.824 333.575 918.493 325.351 916.94 322.52C912.654 314.712 907.536 309.154 901.396 305.641C899.616 304.622 899.184 304.188 899.37 303.6C899.532 303.091 899.054 302.174 897.866 300.716C895.613 297.948 892.677 292.242 891.126 287.609C887.459 276.664 885.772 262.968 885.234 239.775L884.961 228.012L883.316 228.015C881.791 228.018 881.32 228.335 876.846 232.378ZM936.723 231.995C935.817 232.407 934.688 233.288 934.215 233.952C933.477 234.989 931.736 238.607 931.736 239.105C931.736 239.197 932.415 239.269 933.244 239.264C935.067 239.253 937.646 238.122 938.861 236.8C939.73 235.856 940.985 232.889 940.985 231.782C940.985 230.982 938.702 231.097 936.723 231.995ZM0.703728 235.8C0.238061 236.161 0 236.899 0 237.982C0 239.568 0.0969135 239.687 3.11651 241.802C13.2619 248.909 26.6733 255.478 46.3713 262.988C49.869 264.322 52.7925 265.413 52.8681 265.413C52.9441 265.413 52.9099 265.045 52.7921 264.596C52.669 264.125 52.8717 263.454 53.2686 263.015C53.9305 262.284 53.8915 262.21 52.3288 261.223C43.5853 255.703 24.5083 245.625 9.7376 238.722C2.30623 235.249 1.67849 235.046 0.703728 235.8ZM372.373 237.775C372.373 237.92 382.022 246.417 385.234 249.101C386.016 249.754 385.66 249.247 384.437 247.965C382.474 245.909 372.373 237.376 372.373 237.775ZM795.026 241.257C794.142 242.909 794.885 245.707 796.208 245.707C796.557 245.707 796.918 242.292 796.692 241.14C796.514 240.238 795.535 240.306 795.026 241.257ZM747.438 247.617C746.608 250.217 745.934 252.671 745.94 253.073C745.969 254.828 747.872 256.943 749.438 256.959C751.66 256.981 752.338 248.696 750.434 244.802C749.92 243.752 749.375 242.892 749.223 242.892C749.072 242.892 748.268 245.018 747.438 247.617ZM567.285 246.009C567.609 246.904 568.613 248.4 568.613 247.989C568.613 247.565 567.429 245.305 567.207 245.305C567.109 245.305 567.144 245.621 567.285 246.009ZM463.254 246.664C463.254 246.747 463.571 247.064 463.958 247.367C464.596 247.867 464.61 247.853 464.11 247.215C463.584 246.545 463.254 246.333 463.254 246.664ZM464.746 248.623C469.647 255.045 474.713 261.457 475.208 261.867C475.561 262.158 473.359 259.185 470.317 255.259C467.274 251.332 464.69 248.12 464.573 248.12C464.457 248.12 464.535 248.347 464.746 248.623ZM569.819 250.935C570.489 252.262 571.127 253.348 571.238 253.348C571.349 253.348 570.891 252.262 570.221 250.935C569.551 249.608 568.912 248.522 568.802 248.522C568.691 248.522 569.149 249.608 569.819 250.935ZM136.707 249.76C136.043 251.002 136.371 251.434 139.595 253.559C145.796 257.644 151.955 260.036 168.694 264.861C174.444 266.518 180.778 268.424 182.768 269.096C187.563 270.714 196.295 275.021 199.039 277.12C201.082 278.683 201.433 278.808 204.066 278.905C205.623 278.962 208.698 279.479 210.899 280.053C215.843 281.343 216.034 281.346 215.877 280.148C215.809 279.626 216.019 278.878 216.344 278.486C216.882 277.838 216.772 277.632 215.133 276.195C212.881 274.223 206.824 271.253 200.261 268.903C197.496 267.913 191.372 265.45 186.651 263.43C163.696 253.609 148.732 248.924 140.313 248.924C137.527 248.924 137.102 249.023 136.707 249.76ZM830.344 256.942C828.927 258.105 829.722 259.143 832.15 259.302L834.019 259.425V257.794C834.019 256.209 833.981 256.163 832.656 256.163C831.902 256.163 830.868 256.512 830.344 256.942ZM310.522 257.441C309.569 257.654 308.697 258.07 308.584 258.364C308.471 258.659 308.752 259.634 309.21 260.531C310.758 263.567 315.517 265.413 321.796 265.413H325.339L325.08 264.307C323.765 258.691 317.707 255.834 310.522 257.441ZM869.909 259.647C869.633 259.759 869.406 260.368 869.406 261C869.406 262.51 870.709 263.402 872.914 263.402C874.557 263.402 874.634 263.348 874.634 262.196C874.634 260.047 872.188 258.727 869.909 259.647ZM577.733 265.685C579.458 269.042 580.934 271.724 581.012 271.646C581.196 271.462 575.939 261.239 575.176 260.297C574.857 259.904 576.007 262.328 577.733 265.685ZM475.72 262.75C475.72 262.833 476.037 263.15 476.424 263.454C477.062 263.954 477.076 263.94 476.576 263.302C476.051 262.632 475.72 262.419 475.72 262.75ZM228.525 268.017C226.406 268.939 226.334 271.848 228.43 271.848C229.441 271.848 230.823 269.959 230.823 268.576C230.823 267.286 230.429 267.189 228.525 268.017ZM219.362 280.992C219.87 281.521 238.96 291.593 239.13 291.423C239.2 291.354 237.766 290.469 235.944 289.456C230.745 286.566 218.917 280.528 219.362 280.992ZM427.867 284.114C427.867 284.918 428.068 285.119 428.872 285.119C429.676 285.119 429.877 284.918 429.877 284.114C429.877 283.309 429.676 283.108 428.872 283.108C428.068 283.108 427.867 283.309 427.867 284.114ZM676.242 287.435C675.94 287.924 676.627 291.08 677.182 291.748C677.46 292.083 678.028 292.358 678.443 292.358C679.652 292.358 679.49 289.396 678.211 288.117C677.203 287.109 676.578 286.892 676.242 287.435ZM240.474 292.129C240.474 292.239 240.836 292.523 241.278 292.76C241.721 292.997 242.083 293.1 242.083 292.989C242.083 292.879 241.721 292.595 241.278 292.358C240.836 292.121 240.474 292.018 240.474 292.129ZM684.065 308.444C684.536 309.661 685.192 311.435 685.523 312.387C685.854 313.34 686.193 314.05 686.277 313.966C686.531 313.712 684.429 307.794 683.798 306.987C683.427 306.512 683.526 307.051 684.065 308.444ZM505.915 307.889C506.449 308.578 506.966 309.071 507.065 308.983C507.164 308.895 506.727 308.33 506.094 307.729L504.944 306.635L505.915 307.889ZM381.278 307.833C382.067 308.622 386.447 311.155 386.447 310.822C386.447 309.318 384.196 307.64 382.178 307.64C381.577 307.64 381.172 307.727 381.278 307.833ZM544.3 317.795C544.711 319.705 545.58 321.226 546.558 321.75C547.346 322.171 547.393 322.13 547.13 321.259C546.972 320.736 546.692 319.715 546.508 318.99C546.107 317.412 545.404 316.488 544.605 316.488C544.154 316.488 544.084 316.789 544.3 317.795ZM576.655 324.129C576.892 324.571 577.176 324.933 577.286 324.933C577.397 324.933 577.294 324.571 577.057 324.129C576.82 323.686 576.537 323.324 576.426 323.324C576.315 323.324 576.418 323.686 576.655 324.129ZM578.264 326.944C578.5 327.386 578.784 327.748 578.895 327.748C579.006 327.748 578.903 327.386 578.666 326.944C578.429 326.502 578.145 326.14 578.034 326.14C577.924 326.14 578.027 326.502 578.264 326.944ZM778.769 328.385C778.259 329.712 778.532 331.652 779.329 332.373C780.113 333.083 780.133 333.076 780.133 332.08C780.133 331.434 780.503 330.816 781.138 330.399C781.763 329.99 782.144 329.363 782.144 328.744C782.144 327.855 781.976 327.748 780.578 327.748C779.522 327.748 778.934 327.955 778.769 328.385ZM310.445 330.715C310.445 330.799 310.761 331.116 311.148 331.419C311.786 331.919 311.8 331.905 311.3 331.267C310.775 330.597 310.445 330.384 310.445 330.715ZM584.653 338.92C587.187 343.978 591.821 351.511 592.754 352.087C592.964 352.217 591.581 349.644 589.682 346.37C587.783 343.096 585.321 338.833 584.212 336.897C583.102 334.962 582.123 333.379 582.036 333.379C581.949 333.379 583.127 335.872 584.653 338.92ZM597.462 352.919C597.941 353.602 598.651 354.417 599.039 354.729C599.568 355.154 599.527 354.984 598.876 354.054C598.397 353.371 597.687 352.556 597.299 352.244C596.77 351.82 596.811 351.99 597.462 352.919ZM597.566 358.715C597.566 358.936 597.757 359.117 597.991 359.117C598.224 359.117 598.772 359.924 599.209 360.91C600.05 362.812 600.547 363.332 601.161 362.952C601.788 362.565 600.81 360.418 599.508 359.322C598.243 358.258 597.566 358.046 597.566 358.715ZM773.106 361.108C772.334 362.601 772.331 363.309 773.096 363.943C773.596 364.358 773.699 364.313 773.699 363.679C773.699 363.259 773.987 362.505 774.338 362.003C774.985 361.079 774.866 359.921 774.124 359.921C773.902 359.921 773.444 360.455 773.106 361.108ZM956.869 360.514C959.745 360.813 966.531 361.44 971.949 361.906C977.368 362.373 982.525 362.831 983.41 362.925L985.019 363.094L983.611 362.462C980.301 360.974 974.168 360.289 962.7 360.126L951.642 359.97L956.869 360.514ZM998.441 369.107C999.63 370.484 1000.95 371.798 1001.38 372.028C1002.26 372.498 1009.61 372.071 1009.07 371.582C1008.89 371.418 1006.3 370.377 1003.32 369.267C1000.33 368.158 997.525 367.104 997.083 366.926C996.591 366.728 997.119 367.576 998.441 369.107ZM563.686 367.594C562.846 368.084 562.721 370.669 563.487 371.717C564.015 372.441 563.914 372.457 570.548 370.536C571.324 370.312 570.76 369.642 568.687 368.327C566.804 367.133 564.946 366.861 563.686 367.594ZM557.755 370.875C557.755 371.648 560.265 373.997 561.092 373.997C561.88 373.997 561.975 373.553 561.328 372.905C561.081 372.658 560.67 372.034 560.413 371.517C559.888 370.458 557.755 369.942 557.755 370.875ZM600.795 373.796C600.795 375.501 600.91 376.032 601.185 375.606C601.399 375.274 601.575 374.459 601.575 373.796C601.575 373.132 601.399 372.318 601.185 371.986C600.91 371.56 600.795 372.091 600.795 373.796ZM969.782 375.113C969.647 375.494 969.441 376.002 969.325 376.24C969.209 376.478 969.539 376.867 970.058 377.104C970.841 377.461 971.086 377.401 971.49 376.755C972.034 375.883 971.852 375.395 970.765 374.813C970.198 374.51 969.971 374.579 969.782 375.113ZM611.571 375.456C611.798 375.87 612.277 376.571 612.636 377.013C613.241 377.76 613.243 377.725 612.668 376.536C612.327 375.831 611.848 375.131 611.603 374.979C611.285 374.782 611.275 374.918 611.571 375.456ZM264.757 386.766C264.636 387.153 264.377 387.871 264.181 388.362C263.675 389.634 264.681 390.099 266.553 389.458C267.833 389.021 268.036 388.772 268.145 387.509C268.269 386.063 268.269 386.062 266.624 386.062C265.409 386.062 264.921 386.246 264.757 386.766ZM827.968 390.922C827.721 391.384 827.595 391.837 827.688 391.929C827.78 392.022 828.063 391.645 828.315 391.09C828.869 389.874 828.599 389.743 827.968 390.922ZM547.477 396.439C548.569 397.578 549.545 398.428 549.645 398.328C549.92 398.053 548.973 397.034 547.137 395.629C545.5 394.376 545.503 394.381 547.477 396.439ZM953.191 395.751C951.97 396.105 949.43 398.54 949.43 399.357C949.43 400.43 953.764 400.929 955.644 400.073C956.514 399.677 956.668 399.342 956.668 397.851C956.668 396.337 956.527 396.042 955.637 395.704C955.07 395.488 954.572 395.328 954.531 395.348C954.49 395.368 953.887 395.549 953.191 395.751ZM910.131 397.322C908.814 399.981 908.942 402.326 910.615 406.275C910.836 406.795 910.762 406.925 910.339 406.762C908.87 406.198 908.151 411.819 909.593 412.59C912.297 414.038 916.053 411.502 916.053 408.229C916.053 406.63 914.604 405.614 912.649 405.843L911.25 406.006L911.138 400.759L911.027 395.513L910.131 397.322ZM820.986 400.198C817.678 403.799 812.748 411.066 810.114 416.224C808.079 420.209 806.153 422.126 804.66 421.652C804.074 421.466 803.855 421.802 803.444 423.517C801.857 430.13 798.821 435.113 790.978 443.973C787.694 447.684 787.017 448.252 785.396 448.66C781.261 449.7 773.088 449.087 765.589 447.173C761.636 446.164 761.14 446.181 759.225 447.39C757.007 448.79 747.815 453.386 745.148 454.428C740.994 456.051 737.308 457.312 733.313 458.478L729.319 459.642L728.085 458.712C725.425 456.706 720.927 454.382 717.341 453.16C714.01 452.025 713.052 451.874 708.956 451.847C703.933 451.813 701.435 452.399 698.701 454.255C697.908 454.793 697.058 455.234 696.813 455.234C696.567 455.234 695.41 454.329 694.24 453.223C692.414 451.495 691.887 451.212 690.496 451.212C688.314 451.212 687.95 452.005 687.726 457.245L687.546 461.467L685.423 464.282C684.255 465.831 681.982 469.45 680.372 472.326C676.114 479.931 674.232 482.654 671.47 485.212C669.28 487.239 668.864 487.466 667.689 487.276C666.487 487.081 666.305 487.192 665.646 488.527C665.056 489.723 664.48 490.163 662.524 490.912C658.17 492.58 652.341 492.062 641.681 489.06C637.841 487.979 636.108 487.607 631.09 486.789C629.933 486.6 629.816 486.685 629.649 487.823C629.409 489.454 630.368 490.195 634.792 491.795C639.264 493.413 640.29 493.968 641.517 495.426C642.875 497.04 643.21 498.716 642.463 500.16C641.277 502.455 639.35 502.714 632.551 501.492C629.154 500.88 626.734 501.207 620.315 503.144C613.549 505.186 609.552 505.562 607.267 504.371C605.709 503.559 605.643 503.556 605.413 504.279C604.986 505.626 604.093 505.97 600.097 506.325C597.931 506.518 594.634 507.136 592.77 507.698C590.57 508.363 588.384 508.727 586.537 508.739L583.692 508.756L582.184 511.078C581.269 512.487 580.676 513.887 580.676 514.64V515.881L582.56 515.314C585.383 514.465 593.125 513.232 598.571 512.763C613.265 511.501 631.839 513.327 647.419 517.565C649.957 518.256 652.057 518.855 652.087 518.898C652.117 518.941 652.555 520.674 653.06 522.748C654.585 529.004 654.331 532.909 652.345 533.74C651.66 534.027 646.874 534.285 639.57 534.43C629.446 534.63 627.749 534.753 626.833 535.354C625.324 536.343 625.1 537.45 626.072 539.099C626.525 539.866 626.798 540.748 626.679 541.059C626.56 541.37 625.581 542.003 624.506 542.466C621.551 543.737 617.919 543.603 613.651 542.064C603.868 538.536 602.15 538.076 602.537 539.086C602.817 539.814 602.336 539.873 601.657 539.194C600.225 537.763 602.406 541.769 605.219 545.739C606.954 548.187 608.674 551.092 609.039 552.193C609.755 554.348 609.963 554.407 612.445 553.154C616.438 551.137 623.081 550.341 625.941 551.536C627.574 552.218 627.561 552.576 625.747 556.981C624.707 559.506 623.692 561.094 617.697 569.579C616.161 571.752 614.409 574.795 613.802 576.34C612.879 578.695 612.483 579.241 611.362 579.709C610.625 580.017 609.075 581.156 607.916 582.241C604.83 585.131 602.04 587.143 601.121 587.143C600.633 587.143 600.396 587.341 600.522 587.646C602.764 593.066 603.356 600.13 601.75 602.295C601.288 602.92 600.342 603.619 599.649 603.85L598.389 604.269L600.66 607.662C605.025 614.182 606.916 619.69 606.022 623.279C605.39 625.813 604.583 626.957 603.425 626.957C602.681 626.957 602.511 627.128 602.667 627.723C602.805 628.251 602.606 628.571 602.026 628.755C601.027 629.072 600.922 630.396 601.744 632.299C602.052 633.01 603.593 635.024 605.17 636.773C606.747 638.522 608.17 640.422 608.331 640.995C608.951 643.199 608.61 647.992 607.709 649.731C606.846 651.395 603.473 654.705 602.636 654.708C602.391 654.709 602.733 655.068 603.397 655.506C604.06 655.945 604.892 656.514 605.245 656.771C606.305 657.543 607.795 656.879 608.549 655.297C609.152 654.033 609.397 653.867 610.502 653.978C611.681 654.095 611.809 654.267 612.444 656.596C613.504 660.482 613.903 660.89 616.746 660.993C620.211 661.119 621.484 661.804 625.697 665.814C628.154 668.152 629.708 669.342 630.196 669.259C630.813 669.156 630.943 669.395 630.943 670.64C630.943 672.787 632.248 675.204 634.675 677.548C637.297 680.082 639.387 681.81 639.387 681.443C639.387 681.289 637.847 678.92 635.963 676.179C634.08 673.438 632.594 671.195 632.661 671.195C632.729 671.195 634.858 672.081 637.392 673.164C653.653 680.111 664.355 685.661 671.558 690.882C674.917 693.317 675.012 693.355 677.062 693.135C678.209 693.011 681.466 692.088 684.3 691.082C693.094 687.961 695.633 687.281 698.504 687.281C700.851 687.281 701.558 687.48 704.234 688.89C707.563 690.643 709.056 690.881 709.937 689.795C712.648 686.457 712.692 686.419 713.649 686.659C714.291 686.82 714.679 686.703 714.833 686.301C714.959 685.972 715.407 685.594 715.829 685.46C716.338 685.298 716.597 684.846 716.597 684.114C716.597 683.508 716.862 682.66 717.187 682.231C717.512 681.802 717.783 681.043 717.79 680.545C717.804 679.572 717.89 679.539 720.6 679.479C722.387 679.439 722.394 679.433 723.744 676.825C724.488 675.387 725.673 673.599 726.376 672.852C728.233 670.878 732.421 668.253 736.748 666.351C738.824 665.439 741.887 663.983 743.554 663.117C745.221 662.252 746.696 661.543 746.832 661.543C747.248 661.543 747.963 663.995 747.963 665.423C747.963 666.396 748.143 666.771 748.613 666.771C749.036 666.771 749.197 667.017 749.075 667.475C748.971 667.862 743.6 682.268 737.139 699.488C730.679 716.708 725.455 730.861 725.531 730.937C725.773 731.178 741.04 700.523 742.567 696.732C746.499 686.967 748.857 677.561 749.271 669.988C749.338 668.776 749.539 668.213 749.882 668.282C750.847 668.478 751.266 666.297 750.996 662.486C750.793 659.626 750.873 658.475 751.351 657.329L751.968 655.853L754.188 656.084C755.409 656.211 757.441 656.423 758.705 656.556C762.053 656.907 765.925 658.18 768.619 659.815C770.959 661.237 770.996 661.244 773.243 660.767C774.489 660.502 777.465 659.354 779.856 658.216C783.465 656.499 784.17 656.018 784.006 655.387C783.852 654.802 783.979 654.672 784.556 654.823C786.052 655.214 787.901 652.232 789.945 646.135C792.812 637.58 794.615 635.402 798.832 635.402C801.157 635.402 802.587 636.136 804.408 638.263C807.383 641.74 807.555 643.837 805.67 653.653C803.805 663.363 801.328 670.604 799.614 671.357C798.796 671.717 798.802 671.759 800.049 674.977C800.744 676.768 801.904 679.771 802.626 681.651C804.608 686.81 806.999 691.164 809.113 693.462C810.952 695.461 811.036 695.504 811.796 694.815C812.228 694.425 813.017 694.154 813.549 694.212C814.476 694.315 814.515 694.219 814.513 691.85C814.511 689.576 814.261 688.876 811.35 683.021C807.445 675.167 807.037 674.035 806.982 670.922C806.87 664.64 811.949 661.066 817.369 663.614C818.95 664.357 819.938 665.411 821.389 667.897C821.427 667.964 822.043 667.485 822.757 666.832C823.973 665.722 824.026 665.561 823.607 664.29C823.333 663.46 821.664 661.451 819.311 659.121C817.195 657.025 815.226 654.857 814.937 654.304C814.647 653.751 814.19 651.98 813.921 650.369C813.327 646.81 813.838 643.096 815.353 639.954C816.375 637.834 818.712 635.402 819.729 635.402C820.037 635.402 821.253 636.513 822.429 637.871C826.838 642.957 827.552 643.442 829.796 642.878C830.619 642.672 830.802 642.381 830.802 641.275C830.802 640.532 830.52 639.691 830.175 639.405C829.135 638.541 827.55 635.544 826.945 633.297C825.836 629.171 825.834 624.883 826.94 614.769C828.377 601.624 828.344 596.927 826.778 591.518C825.498 587.098 825.5 586.057 826.792 583.524C828.359 580.454 830.857 578.936 837.437 577.055C842.474 575.614 844.222 574.81 846.878 572.71C847.909 571.895 850.37 570.623 852.344 569.884C861.524 566.45 864.467 564.412 866.372 560.167C867.335 558.02 867.408 557.581 866.977 556.54C866.301 554.907 864.741 553.69 860.548 551.524C856.618 549.494 854.796 547.759 854.149 545.429C852.916 540.986 853.581 540.521 866.668 536.68C870.211 535.641 872.809 534.058 874.318 532.02C875.054 531.027 876.214 525.852 875.795 525.433C875.683 525.321 874.697 525.567 873.604 525.981C872.512 526.394 869.026 527.296 865.857 527.985C862.689 528.673 859.119 529.699 857.924 530.265C855.694 531.32 853.472 533.558 853.063 535.163C852.772 536.3 852.472 536.3 851.399 535.158C850.136 533.813 849.412 531.796 848.753 527.787C848.429 525.817 847.843 523.481 847.451 522.596C846.643 520.771 846.675 520.213 847.669 518.783C849.434 516.244 849.069 515.445 843.333 509.316C841.143 506.974 838.857 504.153 838.255 503.045C837.135 500.987 837.081 500.081 837.859 496.352C838.08 495.292 837.923 494.77 837.034 493.604C835.575 491.691 834.046 490.813 831.196 490.252C829.504 489.919 828.768 489.576 828.598 489.04C828.137 487.589 825.025 483.136 821.554 478.961C815.332 471.477 813.613 468.031 813.23 462.272C812.878 456.974 814.502 449.332 821.304 424.267C823.844 414.907 825.99 405.337 826.615 400.577C826.897 398.427 826.89 398.406 825.935 398.658C825.232 398.845 824.799 398.687 824.336 398.078C823.714 397.26 823.645 397.303 820.986 400.198ZM1029.05 399.332C1027.37 399.779 1026.05 399.911 1025.33 399.707L1024.23 399.389V401.988C1024.23 404.06 1024.36 404.64 1024.91 404.848C1025.28 404.992 1027.62 404.694 1030.1 404.185C1032.58 403.677 1034.79 403.374 1035.01 403.512C1035.24 403.651 1035.54 403.223 1035.69 402.559C1035.83 401.896 1036.12 401.247 1036.33 401.118C1036.54 400.988 1036.15 400.352 1035.45 399.705C1034 398.344 1033.01 398.286 1029.05 399.332ZM52.9473 406.036C52.7997 406.183 52.6791 406.636 52.6791 407.041C52.6791 407.931 53.9748 408.037 54.6664 407.203C55.0476 406.744 54.9817 406.542 54.3399 406.198C53.3965 405.693 53.3012 405.682 52.9473 406.036ZM1050.77 407.834C1049.55 408.055 1047.67 408.139 1046.6 408.021L1044.64 407.805L1044.89 409.099C1045.28 411.088 1046.39 412.292 1049.05 413.61C1052.02 415.081 1053.12 416.025 1053.84 417.732C1054.45 419.174 1054.98 419.305 1056.92 418.493C1059.39 417.465 1062.43 413.548 1062.43 411.408C1062.43 410.954 1061.81 409.906 1061.05 409.08C1059.69 407.591 1059.64 407.577 1056.33 407.505C1054.49 407.466 1051.98 407.614 1050.77 407.834ZM608.423 425.818C608.423 426.828 609.01 427.483 610.295 427.907C612.022 428.477 612.268 428.266 611.574 426.811C611.17 425.966 610.697 425.643 609.728 425.549C609.01 425.479 608.423 425.6 608.423 425.818ZM734.294 427.384C734.296 428.169 734.588 428.625 735.299 428.955C736.235 429.389 736.301 429.348 736.301 428.331C736.301 427.164 735.66 426.278 734.813 426.278C734.51 426.278 734.291 426.743 734.294 427.384ZM628.612 439.855C628.926 443.13 630.395 445.228 631.954 444.63C632.629 444.371 632.623 444.301 631.851 443.46C631.399 442.968 630.902 441.932 630.746 441.158C630.412 439.505 629.501 437.941 628.872 437.941C628.584 437.941 628.493 438.616 628.612 439.855ZM951.268 438.573C950.567 439.274 950.438 439.952 951.006 439.952C951.809 439.952 952.689 439.418 953.075 438.698C953.407 438.076 953.339 437.941 952.69 437.941C952.256 437.941 951.616 438.225 951.268 438.573ZM1108.04 446.127C1106.55 446.804 1104.88 448.79 1105.38 449.287C1106.04 449.948 1112.04 450.954 1113.58 450.661C1115.12 450.37 1117.67 448.246 1117.41 447.476C1116.98 446.172 1110.1 445.183 1108.04 446.127ZM1156.43 459.692C1154.31 460.189 1151.07 461.875 1148.62 463.748C1146.71 465.208 1143.29 469.476 1143.7 469.889C1143.8 469.986 1146.7 469.631 1150.14 469.101C1159.05 467.729 1162.09 466.599 1164.72 463.68C1166.67 461.528 1166.57 460.461 1164.37 459.8C1162.49 459.236 1158.58 459.183 1156.43 459.692ZM561.851 462.372C561.944 462.864 562.437 463.113 563.489 463.201C565.321 463.353 565.461 462.714 563.727 462.11C562.002 461.508 561.695 461.551 561.851 462.372ZM900.38 468.495C899.212 469.664 898.96 471.15 899.732 472.328C901.104 474.422 902.765 473.091 903.375 469.41C903.657 467.707 903.653 467.701 902.416 467.701C901.716 467.701 900.828 468.047 900.38 468.495ZM988.437 470.58C987.663 470.797 986.079 471.245 984.918 471.578L982.807 472.182V475.718C982.807 478.656 982.944 479.429 983.618 480.286C984.064 480.854 984.263 481.421 984.058 481.548C983.544 481.865 983.951 483.204 984.792 483.965C985.434 484.547 985.527 484.516 985.95 483.589C986.211 483.015 986.746 482.581 987.192 482.581C987.623 482.581 988.035 482.274 988.107 481.9C988.212 481.356 988.684 481.221 990.449 481.232C992.246 481.243 992.338 481.216 990.94 481.086C989.995 480.999 989.327 480.757 989.455 480.548C989.584 480.34 989.408 479.767 989.063 479.275C987.918 477.64 988.503 474.376 990.192 472.974C990.879 472.404 990.955 470.095 990.286 470.15C990.043 470.17 989.211 470.364 988.437 470.58ZM585.156 472.315C585.675 472.834 607.157 481.205 612.904 483.128C619.308 485.271 628.027 487.642 628.343 487.325C628.429 487.239 621.314 484.658 612.53 481.589C603.747 478.52 594.125 475.135 591.148 474.067C586.113 472.26 584.683 471.842 585.156 472.315ZM903.989 474.973C902.994 475.425 901.788 476.162 901.309 476.611C900.557 477.318 900.496 477.601 900.859 478.697C901.43 480.42 901.818 480.745 904.459 481.711C907.434 482.8 912.545 483.649 919.25 484.171C927.171 484.787 927.313 484.777 927.313 483.635C927.313 483.11 927.601 482.44 927.952 482.148C928.533 481.667 928.524 481.567 927.852 481.06C926.177 479.798 918.44 476.171 915.329 475.189C911.056 473.841 906.672 473.757 903.989 474.973ZM338.996 477.567C342.93 478.351 345.259 478.665 344.971 478.372C344.687 478.084 337.949 476.926 336.985 477C336.654 477.025 337.558 477.281 338.996 477.567ZM164.907 477.512C164.999 477.6 168.241 478.404 172.112 479.298C180.527 481.242 188.461 482.61 199.055 483.943C215.865 486.057 213.106 485.258 190.208 481.379C168.445 477.693 164.457 477.084 164.907 477.512ZM877.047 478.543L874.835 479.281L882.274 479.32C886.366 479.342 891.523 479.234 893.735 479.08L897.756 478.801L893.735 478.3C887.558 477.531 879.736 477.645 877.047 478.543ZM1202.06 479.742C1200.39 480.159 1197.44 482.093 1197.75 482.581C1198.05 483.075 1200.66 483.783 1202.17 483.783C1204.99 483.783 1208 482.252 1208 480.814C1208 480.506 1207.75 480.159 1207.45 480.042C1206.28 479.595 1203.32 479.43 1202.06 479.742ZM931.477 482.569C931.343 483.242 930.908 483.868 930.482 484.004C929.561 484.296 929.49 485.219 930.362 485.554C931.429 485.963 931.736 485.834 931.736 484.974C931.736 484.522 932.227 483.696 932.826 483.141C933.729 482.304 933.815 482.066 933.329 481.758C932.288 481.099 931.722 481.347 931.477 482.569ZM939.678 482.472L934.953 482.606V483.757C934.953 484.39 934.699 485.005 934.388 485.124C933.948 485.293 934.166 485.996 935.369 488.291C936.219 489.914 937.365 491.665 937.915 492.182C938.912 493.118 938.922 493.119 941.056 492.432C943.896 491.517 948.81 488.884 950.957 487.127C952.512 485.855 952.617 485.663 952.001 485.213C951.577 484.903 951.441 484.515 951.643 484.188C951.857 483.841 951.81 483.76 951.503 483.95C951.196 484.14 951.074 483.923 951.14 483.308C951.237 482.405 951.147 482.379 947.822 482.358C945.942 482.347 942.277 482.398 939.678 482.472ZM970.028 484.011C968.717 484.93 968.847 485.88 970.24 485.557C971.619 485.237 973.156 484.299 973.156 483.778C973.156 483.16 971.016 483.319 970.028 484.011ZM554.94 516.505C554.94 517.182 554.721 517.569 554.337 517.569C552.721 517.569 554.163 518.97 559.069 522.168C561.666 523.861 562.805 524.877 563.392 526.028C564.345 527.898 564.376 528.602 563.595 530.814C563.006 532.483 563.008 532.495 563.897 532.229C565.821 531.651 568.021 530.174 568.898 528.87C572.195 523.976 565.74 516.45 557.593 515.69L554.94 515.442V516.505ZM1040.86 521.792C1040.41 522.959 1041.04 523.66 1042.42 523.527C1044.69 523.307 1044.32 521.21 1042.01 521.194C1041.5 521.191 1040.99 521.46 1040.86 521.792ZM1057.34 540.087C1056.38 540.475 1055.19 541.99 1055.19 542.824C1055.19 543.633 1057.65 545.938 1058.38 545.815C1058.73 545.756 1059.78 545.308 1060.72 544.818C1061.94 544.183 1062.43 543.675 1062.43 543.047C1062.43 541.624 1062 540.902 1060.79 540.276C1059.52 539.62 1058.62 539.571 1057.34 540.087ZM551.885 549.704C550.271 550.436 549.375 551.609 550.001 552.169C550.641 552.741 554.326 553.764 555.749 553.764C557.593 553.764 557.985 553.397 556.931 552.659C556.481 552.343 555.829 551.377 555.483 550.511C554.768 548.726 554.28 548.616 551.885 549.704ZM301.095 552.385C299.787 553.095 299.654 553.764 300.82 553.764C301.99 553.764 303.206 553.039 303.206 552.342C303.206 551.601 302.514 551.615 301.095 552.385ZM570.394 558.098C570.565 558.639 570.43 558.98 569.973 559.155C569.422 559.366 569.567 559.613 570.767 560.509C573.028 562.2 574.788 565.005 577.286 570.903C579.993 577.294 581.327 579.316 583.094 579.704C583.786 579.856 584.438 579.896 584.541 579.792C584.645 579.689 584.533 578.376 584.294 576.876C583.972 574.861 583.985 572.881 584.342 569.308L584.827 564.469L582.793 562.598C580.08 560.103 576.132 558.289 571.889 557.588C570.267 557.319 570.158 557.357 570.394 558.098ZM915.484 563.489C914.669 564.653 915.31 565.426 917.094 565.426C918.456 565.426 919.27 564.608 919.27 563.241C919.27 562.196 916.251 562.394 915.484 563.489ZM585.116 586.196C585.107 586.449 585.475 587.869 585.932 589.351C586.817 592.216 587.464 592.764 586.726 590.024C586.203 588.08 585.138 585.548 585.116 586.196ZM476.78 600.846C476.197 601.304 475.72 602.037 475.72 602.475C475.72 603.183 475.955 603.258 477.832 603.15C479.817 603.036 479.936 602.968 479.835 602.023C479.736 601.112 478.794 600.012 478.111 600.012C477.961 600.012 477.363 600.387 476.78 600.846ZM856.136 617.574C853.814 618.385 851.135 620.308 850.556 621.579C850.307 622.125 850.104 623.667 850.104 625.006V627.441L853.019 627.173C854.623 627.027 858.016 626.651 860.559 626.341C863.103 626.029 867.989 625.494 871.417 625.152C874.845 624.809 878.426 624.42 879.375 624.288C880.324 624.154 881.049 624.203 880.987 624.395C880.839 624.852 884.347 630.914 885.665 632.482C886.832 633.869 888.609 634.804 890.875 635.223L892.438 635.513L892.148 633.949C891.716 631.62 889.99 628.722 888.138 627.219C885.117 624.766 882.121 622.935 881.849 623.375C881.685 623.641 880.175 623.124 877.77 621.977C872.659 619.54 870.152 618.555 866.792 617.664C863.36 616.753 858.599 616.713 856.136 617.574ZM532.433 623.666C531.592 623.925 532.512 624.438 538.465 627.033C542.329 628.718 550.919 632.488 557.554 635.411C564.189 638.334 570.794 641.226 572.232 641.837C573.669 642.448 578.996 644.776 584.068 647.01C589.14 649.245 593.34 651.023 593.401 650.962C593.463 650.901 592.208 650.056 590.613 649.084C589.019 648.113 583.371 644.392 578.063 640.816C562.814 630.542 555.621 626.797 547.124 624.706C542.903 623.668 534.386 623.064 532.433 623.666ZM521.388 633.634C520.075 633.951 518.899 634.321 518.774 634.457C518.543 634.706 527.608 634.404 535.236 633.906C538.912 633.666 539.224 633.593 537.648 633.34C534.435 632.823 523.955 633.013 521.388 633.634ZM544.681 633.399C544.277 634.053 544.442 634.108 547.099 634.204C550.586 634.331 551.212 634.256 551.431 633.686C551.691 633.008 545.096 632.727 544.681 633.399ZM509.223 638.6C508.519 639.03 507.732 639.774 507.475 640.253C507.07 641.01 507.25 640.959 508.837 639.867C511.594 637.97 511.9 636.968 509.223 638.6ZM832.812 643.153C832.812 643.264 835.843 645.673 839.548 648.507C843.253 651.34 848.139 655.084 850.405 656.827C852.672 658.57 854.527 659.835 854.527 659.638C854.527 659.442 853.269 657.915 851.731 656.246C848.889 653.162 844.706 650.064 838.311 646.312C836.359 645.166 834.323 643.941 833.787 643.59C833.251 643.239 832.812 643.042 832.812 643.153ZM445.963 646.06C445.547 646.56 445.594 646.663 446.239 646.663C446.666 646.663 447.367 646.929 447.796 647.253C449.526 648.562 452.03 647.557 450.784 646.055C450.112 645.245 446.635 645.249 445.963 646.06ZM466.144 647.095C464.306 647.273 461.37 647.895 459.621 648.477C456.381 649.557 451.484 652.399 452.501 652.611C453.047 652.724 484.209 647.558 484.453 647.313C484.626 647.14 474.015 646.651 471.535 646.718C470.409 646.748 467.983 646.918 466.144 647.095ZM854.929 661.154C854.929 662.026 856.459 665.236 857.51 666.57C857.859 667.012 857.505 665.948 856.724 664.204C855.942 662.461 855.357 660.981 855.422 660.916C855.488 660.851 857.083 662.277 858.967 664.086C860.852 665.894 865.37 670.179 869.009 673.608C872.647 677.036 877.256 681.392 879.251 683.287C881.245 685.181 887.569 691.153 893.304 696.558C929.388 730.566 936.763 737.644 936.763 738.268C936.763 738.773 936.33 739.014 935.158 739.16C934.091 739.294 933.511 739.584 933.427 740.027C933.357 740.398 934.518 742.083 936.062 743.847C940.096 748.457 942.535 751.631 949.456 761.279C960.471 776.634 963.817 780.355 970.856 785.077C976.01 788.533 979.044 791.583 982.845 797.127C986.38 802.283 988.973 804.929 993.912 808.419C997.891 811.231 1000.15 813.572 1001.5 816.275C1002.08 817.436 1002.82 818.386 1003.14 818.386C1003.46 818.386 1004.8 819.376 1006.12 820.587C1008.83 823.082 1010.22 823.637 1011.31 822.657C1011.7 822.299 1012.43 822.006 1012.92 822.006C1013.67 822.006 1013.78 821.851 1013.55 821.101C1012.49 817.591 1010.21 815.063 1004.52 811.071C998.859 807.102 989.625 795.734 983.812 785.578C977.091 773.835 974.386 770.864 959.684 759.078C949.489 750.905 943.983 745.58 940.847 740.864C939.516 738.86 938.76 738.075 938.266 738.179C937.778 738.282 936.152 736.663 932.874 732.811C922.61 720.751 913.083 710.424 901.593 698.905C888.803 686.082 879.399 677.772 868.401 669.572C863.111 665.629 855.509 660.337 855.134 660.337C855.022 660.337 854.929 660.704 854.929 661.154ZM431.647 662.519C430.13 663.179 429.52 664.358 430.694 664.358C431.522 664.358 433.095 663.041 433.095 662.347C433.095 661.862 433.179 661.852 431.647 662.519ZM616.9 665.799C616.919 666.268 617.015 666.363 617.143 666.042C617.259 665.752 617.245 665.405 617.111 665.271C616.978 665.138 616.883 665.375 616.9 665.799ZM827.426 677.127C832.548 687.013 833.368 688.236 831.443 683.121C830.155 679.698 824.359 669.586 823.686 669.586C823.595 669.586 825.278 672.98 827.426 677.127ZM865.245 677.028C867.172 679.471 871.188 683.63 870.269 682.231C868.942 680.211 866.472 677.357 865.184 676.357L863.977 675.42L865.245 677.028ZM430.332 681.878C429.253 683.249 429.241 684.531 430.297 685.487C431.018 686.14 431.087 686.148 430.857 685.549C430.713 685.174 430.895 684.116 431.262 683.199C432.096 681.117 431.545 680.335 430.332 681.878ZM610.736 683.357C608.962 685.325 609.378 686.941 611.419 686.011C612.475 685.53 613.031 684.311 612.782 683.023C612.569 681.923 611.935 682.026 610.736 683.357ZM787.371 686.276C787.371 687.08 787.573 687.281 788.377 687.281C789.181 687.281 789.382 687.08 789.382 686.276C789.382 685.472 789.181 685.271 788.377 685.271C787.573 685.271 787.371 685.472 787.371 686.276ZM829.764 687.73C828.975 688.869 828.769 689.603 828.866 690.939C828.975 692.435 829.184 692.783 830.399 693.495C831.194 693.96 832.843 694.407 834.188 694.52L836.57 694.721L839.973 700.868C841.844 704.248 843.449 706.94 843.538 706.851C843.84 706.549 840.019 698.959 838.193 696.237C837.196 694.75 836.558 693.473 836.776 693.4C837.259 693.239 836.008 688.511 835.133 687.194C834.646 686.461 834.147 686.274 832.655 686.265C830.952 686.255 830.697 686.384 829.764 687.73ZM432.922 687.511C431.988 688.445 432.142 689.096 433.585 690.31L434.88 691.4L435.224 690.071C435.854 687.641 434.404 686.029 432.922 687.511ZM418.517 687.716C417.703 688.19 417.57 689.292 418.327 689.292C419.007 689.292 420.628 688.142 420.628 687.661C420.628 687.164 419.41 687.196 418.517 687.716ZM503.558 690.225C502.359 691.538 501.6 693.237 500.732 696.556C500.301 698.201 499.881 699.806 499.798 700.123C499.704 700.484 500.342 701.037 501.503 701.602C502.524 702.098 503.451 702.744 503.563 703.037C503.832 703.737 507.977 703.968 509.136 703.347C509.957 702.908 509.994 702.688 509.746 699.713C509.469 696.393 509.889 694.59 511.26 693.219C511.88 692.599 511.766 692.558 509.607 692.632L507.288 692.711L506.921 691.061C506.604 689.634 506.406 689.407 505.457 689.38C504.811 689.361 504.029 689.709 503.558 690.225ZM546.093 692.345C555.4 693.889 557.114 693.942 553.546 692.572C550.066 691.236 547.77 690.896 542.52 690.938L537.85 690.976L546.093 692.345ZM715.27 693.568C714.899 693.939 715.734 695.325 716.329 695.325C716.609 695.325 717.048 695.114 717.306 694.856C717.663 694.499 717.61 694.262 717.085 693.864C716.326 693.286 715.66 693.178 715.27 693.568ZM598.772 695.819C597.998 696.304 597.232 696.889 597.069 697.119C596.455 697.988 596.775 704.237 597.621 707.897C598.094 709.94 598.71 712.698 598.989 714.025C599.269 715.352 599.519 716.076 599.546 715.634C599.573 715.191 599.856 711.21 600.177 706.786C600.842 697.618 600.911 694.92 600.481 694.929C600.316 694.933 599.546 695.333 598.772 695.819ZM812.877 696.201C812.978 696.572 813.182 697.522 813.33 698.312C813.567 699.577 813.502 699.748 812.78 699.748C812.329 699.748 811.567 700.246 811.088 700.854C809.787 702.505 810.072 706.649 811.644 708.917C812.808 710.597 813.991 711.377 814.239 710.63C814.317 710.396 814.604 710.205 814.876 710.205C815.763 710.205 816.729 707.477 816.696 705.063C816.655 701.949 815.895 699.94 814.774 699.981C814.112 700.006 813.908 699.773 813.894 698.976C813.884 698.406 813.61 697.396 813.285 696.732C812.959 696.069 812.776 695.83 812.877 696.201ZM634.026 700.821C633.491 701.355 633.789 701.744 635.502 702.748C637.493 703.915 638.397 704.032 638.729 703.167C638.856 702.835 638.775 702.564 638.549 702.564C638.323 702.564 637.473 702.111 636.659 701.558C635.145 700.529 634.498 700.348 634.026 700.821ZM445.783 704.54C445.658 704.743 445.762 704.977 446.013 705.061C446.266 705.145 446.764 706.004 447.122 706.972C447.899 709.074 448.778 709.581 448.776 707.926C448.773 705.757 446.57 703.265 445.783 704.54ZM670.955 704.86C670.291 704.951 669.115 705.19 668.341 705.391C667.001 705.739 666.935 705.838 666.979 707.46C667.034 709.49 667.661 710.02 670.687 710.594C673.525 711.132 676.383 710.501 678.014 708.977C678.719 708.319 679.204 707.501 679.129 707.098C678.864 705.663 674.274 704.407 670.955 704.86ZM505.113 705.811C505.093 706.38 505.443 708.885 505.891 711.377C506.582 715.212 507.138 717.014 508.973 721.369C509.114 721.704 508.966 721.792 508.539 721.628C507.99 721.417 507.891 721.728 507.891 723.661C507.891 728.096 508.859 728.392 514.684 725.739C516.809 724.771 519.407 723.855 520.457 723.703C521.723 723.52 522.367 723.231 522.367 722.848C522.367 722.53 522.639 722.27 522.971 722.27C523.392 722.27 523.574 721.845 523.574 720.862C523.574 719.708 523.723 719.454 524.405 719.454C524.862 719.454 525.604 719.257 526.054 719.016C526.856 718.587 526.85 718.554 525.751 717.408L524.63 716.237L525.754 715.063C526.943 713.823 526.889 712.964 525.644 713.29C525.235 713.397 524.571 713.155 524.169 712.753C523.565 712.149 523.403 712.123 523.244 712.603C523.137 712.923 522.234 714.057 521.236 715.123C519.216 717.284 515.66 719.179 512.276 719.899C511.081 720.153 509.977 720.559 509.823 720.801C509.669 721.043 509.47 721.156 509.379 721.051C509.29 720.947 508.301 717.242 507.183 712.819C506.066 708.395 505.134 705.242 505.113 705.811ZM783.11 706.342C782.7 707.41 783.756 710.137 784.979 711.165C786.152 712.153 788.434 713.013 789.892 713.017C790.463 713.019 790.553 712.801 790.346 711.914C789.773 709.446 788.591 707.386 787.298 706.597C785.755 705.657 783.427 705.515 783.11 706.342ZM918.064 707.766C918.064 709.232 918.834 710.569 920.037 711.191C921.488 711.941 924.095 712.004 925.002 711.311C925.587 710.864 925.597 710.661 925.092 709.486C924.411 707.899 922.51 706.987 919.886 706.987C918.352 706.987 918.064 707.11 918.064 707.766ZM525.83 708.51C525.512 709.125 525.137 710.347 524.998 711.224L524.744 712.819L525.348 711.508C526.026 710.034 526.809 707.39 526.568 707.39C526.481 707.39 526.149 707.893 525.83 708.51ZM448.778 712.996C448.778 714.73 449.379 715.5 449.77 714.267C450.066 713.334 449.639 711.411 449.136 711.411C448.939 711.411 448.778 712.124 448.778 712.996ZM752.397 717.517C751.17 722.671 750.434 727.113 750.877 726.693C751.201 726.387 754.075 712.564 753.86 712.349C753.757 712.246 753.098 714.571 752.397 717.517ZM846.517 713.02C847.103 714.251 847.289 714.479 847.289 713.968C847.289 713.752 847.007 713.224 846.664 712.795C846.074 712.059 846.066 712.072 846.517 713.02ZM847.691 715.433C847.928 715.875 848.212 716.237 848.322 716.237C848.433 716.237 848.33 715.875 848.093 715.433C847.856 714.99 847.572 714.628 847.462 714.628C847.351 714.628 847.454 714.99 847.691 715.433ZM448.375 718.426C448.375 720.329 451.319 721.296 453.6 720.142C454.15 719.863 454.658 719.341 454.727 718.982C454.824 718.481 454.531 718.328 453.473 718.328C452.713 718.328 451.72 718.129 451.266 717.886C450.811 717.643 449.975 717.444 449.407 717.444C448.581 717.444 448.375 717.639 448.375 718.426ZM849.144 718.072C849.012 718.418 849.184 719.244 849.528 719.908C849.871 720.573 850.497 722.929 850.919 725.143C852 730.812 853.314 732.726 856.129 732.726C857.213 732.726 857.486 732.495 858.157 731.017C858.584 730.076 858.937 728.752 858.942 728.072C858.966 724.647 855.814 719.941 852.381 718.28C850.318 717.281 849.469 717.226 849.144 718.072ZM598.445 719.354C598.014 719.962 597.381 721.274 597.039 722.27C596.697 723.265 594.313 728.197 591.74 733.228C589.168 738.26 587.15 742.378 587.257 742.378C587.364 742.378 588.299 741.039 589.335 739.402C590.743 737.181 591.605 736.254 592.739 735.743C596.252 734.158 600.65 730.501 601.869 728.15C602.847 726.261 603.162 724.393 602.752 722.908C602.346 721.439 600.189 718.248 599.601 718.248C599.397 718.248 598.876 718.746 598.445 719.354ZM615.042 718.677C614.695 719.238 616.024 720.23 617.146 720.246C618.26 720.262 618.691 719.595 618.06 718.833C617.496 718.154 615.431 718.047 615.042 718.677ZM625.976 721.074C624.685 721.461 622.103 723.121 622.099 723.567C622.095 723.893 622.851 723.63 626.218 722.134C627.489 721.569 628.53 721.007 628.53 720.884C628.53 720.575 627.346 720.663 625.976 721.074ZM656.447 721.767C656.431 722.375 656.176 723.698 655.882 724.707C655.373 726.452 655.394 726.597 656.314 727.661C656.847 728.277 657.773 729.036 658.373 729.348C659.366 729.865 659.501 729.845 659.887 729.124C660.12 728.688 660.549 728.423 660.84 728.535C661.173 728.663 661.6 728.151 661.992 727.151C662.559 725.71 662.557 725.505 661.978 724.926C661.627 724.574 661.331 723.807 661.321 723.221C661.306 722.29 661.022 722.061 659.092 721.419C656.302 720.491 656.483 720.467 656.447 721.767ZM817.162 721.484C817.094 721.939 818.808 729.418 819.601 732.123C820.756 736.066 822.909 739.997 825.095 742.152C826.736 743.77 827.585 744.34 827.585 743.825C827.585 743.735 825.487 739.166 822.924 733.67C820.36 728.174 818.023 723.134 817.729 722.471C817.435 721.807 817.18 721.363 817.162 721.484ZM675.292 730.112C675.295 731.218 675.373 731.622 675.466 731.011C675.558 730.4 675.556 729.495 675.46 729C675.365 728.505 675.289 729.006 675.292 730.112ZM660.298 729.062C660.298 729.258 660.669 729.847 661.122 730.369L661.947 731.318L661.313 730.011C660.69 728.725 660.298 728.359 660.298 729.062ZM747.63 731.754C746.704 732.547 745.501 733.955 744.958 734.883C743.857 736.761 741.446 742.429 741.657 742.641C741.801 742.784 749.973 730.873 749.973 730.519C749.973 730.008 749.186 730.422 747.63 731.754ZM750.969 731.72C751.525 733.46 753.342 737.936 753.45 737.829C753.706 737.572 751.949 732.437 751.355 731.706C750.717 730.922 750.714 730.923 750.969 731.72ZM674.853 733.329C674.861 733.993 674.952 734.215 675.054 733.824C675.156 733.433 675.149 732.89 675.039 732.618C674.929 732.345 674.845 732.665 674.853 733.329ZM709.463 735.641C709.195 736.249 709.077 737.249 709.199 737.863C709.404 738.889 709.095 739.23 705.369 742.093C702.773 744.087 701.316 745.478 701.316 745.963C701.316 746.379 701.766 747.507 702.316 748.47C702.946 749.572 703.318 750.852 703.321 751.929L703.326 753.638H707.337C711.331 753.638 711.351 753.643 711.935 754.773C712.258 755.398 712.806 756.144 713.152 756.431C713.68 756.869 713.782 756.848 713.782 756.301C713.782 755.943 713.963 755.649 714.184 755.649C714.415 755.649 714.586 754.409 714.587 752.733C714.587 749.054 715.41 747.253 717.401 746.574C718.175 746.31 718.763 745.891 718.708 745.643C718.653 745.396 718.879 745.193 719.21 745.193C719.542 745.193 719.814 744.866 719.814 744.467C719.814 744.067 720.266 743.127 720.819 742.378C721.372 741.628 721.824 740.606 721.824 740.105C721.824 739.213 721.792 739.207 720.165 739.781C717.972 740.555 714.949 740.522 712.327 739.696L710.199 739.025L710.074 736.78C709.955 734.644 709.926 734.589 709.463 735.641ZM572.98 736.719C571.863 737.632 572.218 738.212 574.131 738.595C575.183 738.806 575.58 738.658 576.431 737.74C576.997 737.129 577.459 736.476 577.459 736.286C577.459 735.59 573.946 735.929 572.98 736.719ZM674.84 741.171C674.812 747.107 676.607 799.038 676.848 799.279C677.235 799.666 679.523 790.259 679.976 786.414C681.234 775.748 679.981 762.14 675.997 743.182L674.856 737.753L674.84 741.171ZM325.293 740.336C324.447 741.182 324.117 741.901 324.117 742.901C324.117 744.672 324.985 745.389 327.063 745.335C329.789 745.263 331.696 742.368 330.709 739.797C330.532 739.334 329.918 739.16 328.467 739.16C326.794 739.16 326.277 739.352 325.293 740.336ZM754.448 741.171C754.44 741.503 754.869 742.589 755.402 743.584C755.935 744.579 756.368 745.213 756.364 744.992C756.354 744.301 754.465 740.535 754.448 741.171ZM732.883 741.786C731.998 742.077 730.798 742.33 730.216 742.347C729.507 742.368 728.814 742.829 728.115 743.746C725.375 747.338 724.005 751.823 725.79 751.356C726.244 751.238 726.637 751.416 726.788 751.81C726.993 752.344 727.631 752.05 730.362 750.168C735.625 746.542 738.312 743.64 738.312 741.586C738.312 741.012 734.843 741.139 732.883 741.786ZM585.19 745.069C582.956 748.217 580.639 753.133 580.692 754.615C580.7 754.852 581.956 752.607 583.482 749.626C586.226 744.268 586.748 742.875 585.19 745.069ZM561.638 745.928C560.892 746.753 560.767 747.833 561.373 748.209C561.826 748.488 563.755 746.47 563.774 745.695C563.793 744.939 562.395 745.091 561.638 745.928ZM543.373 748.168C543.603 750.211 544.578 751.627 545.753 751.627C547.396 751.627 546.38 748.186 544.392 747.011L543.161 746.284L543.373 748.168ZM719.575 747.089C719.132 747.793 719.572 750.631 720.239 751.374C720.59 751.765 721.176 748.51 720.958 747.385C720.767 746.399 720.1 746.257 719.575 747.089ZM465.265 752.633C465.265 753.437 465.466 753.638 466.27 753.638C467.075 753.638 467.276 753.437 467.276 752.633C467.276 751.828 467.075 751.627 466.27 751.627C465.466 751.627 465.265 751.828 465.265 752.633ZM725.535 755.695C725.263 757.159 725.063 759.24 725.089 760.32C725.126 761.849 725.26 761.392 725.693 758.263C726.348 753.536 726.245 751.867 725.535 755.695ZM685.285 754.854C684.438 755.627 684.035 756.305 684.187 756.699C684.318 757.043 684.426 757.49 684.426 757.693C684.426 758.372 686.025 758.072 686.863 757.234C687.424 756.672 687.651 756.003 687.566 755.154C687.399 753.47 686.875 753.401 685.285 754.854ZM622.096 755.649C622.096 756.788 622.185 756.855 623.704 756.855C625.035 756.855 625.313 756.719 625.313 756.065C625.313 755.193 624.21 754.443 622.927 754.443C622.272 754.443 622.096 754.698 622.096 755.649ZM555.744 757.617C555.744 758.921 555.97 759.839 556.396 760.265C557.41 761.278 558.34 760.861 558.487 759.328C558.618 757.959 557.892 756.77 556.452 756C555.821 755.661 555.744 755.836 555.744 757.617ZM530.812 763.733C520.628 768.891 519.249 769.838 526.188 766.91C531.462 764.684 542.786 758.469 541.469 758.523C541.248 758.532 536.452 760.876 530.812 763.733ZM577.459 760.787C577.459 762.725 578.402 764.094 579.737 764.094C580.656 764.094 580.735 763.978 580.488 762.988C580.175 761.736 578.42 759.268 577.841 759.268C577.631 759.268 577.459 759.952 577.459 760.787ZM714.247 762.486C714.247 763.039 714.339 763.265 714.45 762.988C714.562 762.712 714.562 762.26 714.45 761.983C714.339 761.707 714.247 761.933 714.247 762.486ZM591.132 763.424C591.132 764.564 592.056 766.734 592.83 767.412C594.028 768.461 595.487 768.326 595.785 767.14C596.292 765.121 595.154 763.837 592.238 763.138C591.44 762.947 591.132 763.026 591.132 763.424ZM714.679 765.703C714.679 766.477 714.762 766.794 714.863 766.407C714.964 766.02 714.964 765.387 714.863 764.999C714.762 764.612 714.679 764.929 714.679 765.703ZM724.544 765.301C724.088 766.848 724.153 767.959 724.668 767.443C724.906 767.206 725.041 766.401 724.97 765.654C724.848 764.375 724.823 764.354 724.544 765.301ZM727.856 766.708C728.132 767.04 728.538 767.312 728.759 767.312C728.983 767.312 728.94 767.045 728.66 766.708C728.385 766.377 727.979 766.105 727.758 766.105C727.533 766.105 727.577 766.372 727.856 766.708ZM715.089 768.719C715.094 769.604 715.176 769.919 715.272 769.418C715.368 768.918 715.365 768.194 715.264 767.81C715.164 767.425 715.085 767.835 715.089 768.719ZM575.71 773.024C575.579 774.417 575.381 777.004 575.27 778.773L575.068 781.991L575.643 779.377C576.191 776.886 576.518 771.062 576.131 770.675C576.031 770.575 575.841 771.632 575.71 773.024ZM715.422 771.97C715.441 772.438 715.537 772.534 715.665 772.213C715.781 771.923 715.767 771.576 715.633 771.442C715.5 771.309 715.405 771.546 715.422 771.97ZM724.092 776.036C723.766 776.362 723.759 777.907 724.079 778.74C724.526 779.905 725.041 779.397 725.041 777.792C725.041 776.264 724.628 775.5 724.092 776.036ZM716.375 783.599C716.512 785.148 716.981 790.486 717.418 795.463C718.151 803.823 720.01 817.113 720.512 817.582C720.63 817.693 720.613 816.878 720.474 815.772C720.335 814.666 719.96 811.318 719.64 808.332C718.267 795.494 716.542 781.199 716.342 781C716.224 780.881 716.238 782.051 716.375 783.599ZM842.253 792.663C841.718 793.529 842.527 796.291 843.504 796.931C845.05 797.944 845.608 797.439 845.287 795.318C845.135 794.316 844.777 793.214 844.492 792.87C843.901 792.159 842.637 792.042 842.253 792.663ZM588.308 793.151C588.304 793.427 588.038 796.72 587.718 800.469C587.398 804.218 587.195 807.344 587.267 807.416C587.339 807.488 587.622 806.502 587.896 805.225C588.442 802.683 588.98 792.648 588.571 792.648C588.432 792.648 588.313 792.874 588.308 793.151ZM586.553 811.42C585.625 815.971 585.034 825.825 585.732 825.127C585.979 824.881 587.118 810.633 586.909 810.415C586.841 810.344 586.681 810.796 586.553 811.42ZM563.083 819.387C561.502 820.957 561.327 822.408 562.719 822.408C563.992 822.408 564.993 821.209 564.993 819.685C564.993 817.947 564.596 817.885 563.083 819.387ZM720.618 818.573C720.618 818.913 720.425 819.191 720.19 819.191C719.611 819.191 716.671 825.628 716.182 827.968C715.725 830.149 716.157 832.204 717.109 832.387C718.088 832.576 721.349 829.361 722.525 827.049C723.866 824.413 724.01 820.897 722.83 819.593C721.646 818.285 720.618 817.811 720.618 818.573ZM669.505 826.128C663.555 833.126 663.407 833.324 665.526 831.471C668.228 829.108 671.775 824.985 673.754 821.905C675.19 819.672 673.93 820.924 669.505 826.128ZM1019.4 830.652C1019.92 831.205 1020.44 831.658 1020.55 831.658C1020.66 831.658 1020.32 831.205 1019.8 830.652C1019.28 830.099 1018.77 829.647 1018.66 829.647C1018.55 829.647 1018.88 830.099 1019.4 830.652ZM660.178 832.499C656.519 834.431 654.109 838.246 654.96 840.759C655.302 841.768 655.523 841.897 656.719 841.785C659.761 841.501 662.765 839.29 664.201 836.28C664.754 835.12 664.724 834.95 663.678 833.353C663.068 832.421 662.374 831.666 662.137 831.675C661.9 831.685 661.018 832.056 660.178 832.499ZM857.93 833.428C857.574 835.805 857.971 836.967 859.086 836.809C859.777 836.71 859.982 836.369 860.083 835.146C860.207 833.639 859.344 831.658 858.564 831.658C858.362 831.658 858.076 832.454 857.93 833.428ZM1022.68 834.542C1023.86 835.907 1026.55 839.053 1028.65 841.532C1030.75 844.012 1033.92 847.736 1035.69 849.808C1037.45 851.88 1044.23 859.819 1050.74 867.45C1073.94 894.648 1073.91 894.619 1066.83 885.346C1058.83 874.859 1048.07 862.244 1029.36 841.41C1024.74 836.268 1020.87 832.06 1020.75 832.06C1020.63 832.06 1021.5 833.177 1022.68 834.542ZM579.365 839.198C579.261 840.028 578.932 841.292 578.634 842.008C577.573 844.554 580.041 844.869 581.241 842.34C582.055 840.623 582.059 839.13 581.251 838.322C580.208 837.278 579.569 837.575 579.365 839.198ZM200.764 838.953C200.153 839.569 200.12 841.39 200.684 843.421C201.164 845.147 201.984 845.345 204.434 844.321C205.823 843.74 205.891 843.621 205.891 841.771C205.891 840.11 205.751 839.766 204.921 839.388C203.215 838.611 201.302 838.41 200.764 838.953ZM551.425 844.006C550.27 844.229 549.31 845.601 549.31 847.029C549.31 848.98 552.143 848.175 553.219 845.92C553.815 844.668 553.828 844.431 553.317 844.107C552.993 843.902 552.638 843.757 552.527 843.783C552.417 843.81 551.92 843.91 551.425 844.006ZM714.586 847.141C714.586 847.945 714.787 848.146 715.591 848.146C716.395 848.146 716.597 847.945 716.597 847.141C716.597 846.337 716.395 846.136 715.591 846.136C714.787 846.136 714.586 846.337 714.586 847.141ZM592.797 852.771C592.793 852.992 593.139 854.802 593.567 856.793L594.345 860.412L594.131 857.657C594.013 856.142 593.666 854.332 593.361 853.635C593.056 852.939 592.802 852.55 592.797 852.771ZM615.471 854.561C615.134 855.214 614.858 856.229 614.858 856.817C614.858 857.781 614.966 857.859 615.963 857.612C616.571 857.462 617.235 857.177 617.438 856.979C618.012 856.418 617.871 854.149 617.237 853.747C616.351 853.186 616.129 853.288 615.471 854.561ZM542.887 859.312C542.149 860.36 541.853 860.961 542.23 860.649C543.131 859.901 544.619 857.799 544.401 857.58C544.306 857.486 543.625 858.265 542.887 859.312ZM405.134 862.69C402.841 865.057 402.818 865.101 404.612 863.672C406.162 862.438 408.121 860.211 407.657 860.211C407.589 860.211 406.454 861.326 405.134 862.69ZM594.815 864.233C594.815 864.786 594.906 865.012 595.017 864.736C595.129 864.459 595.129 864.007 595.017 863.73C594.906 863.454 594.815 863.68 594.815 864.233ZM566.844 869.153C566.702 869.868 566.167 871.09 565.656 871.867C564.695 873.331 563.787 875.611 563.787 876.559C563.787 876.879 564.227 877.102 564.861 877.102C565.452 877.102 566.247 877.384 566.627 877.728C567.261 878.302 567.386 878.259 568.114 877.225C569.27 875.586 570.472 873.102 570.948 871.372C571.348 869.917 571.33 869.872 570.435 870.097C569.784 870.26 569.255 870.058 568.658 869.417C568.191 868.916 567.808 868.358 567.808 868.178C567.808 867.276 567.071 868.021 566.844 869.153ZM811.097 874.112C811.097 878.323 811.775 879.497 814.214 879.509C815.497 879.515 815.521 879.482 815.521 877.692C815.521 875.25 814.69 873.408 813.012 872.128C812.249 871.546 811.506 871.07 811.361 871.07C811.216 871.07 811.097 872.439 811.097 874.112ZM526.141 882.515C520.435 888.589 515.707 893.498 515.633 893.425C515.56 893.351 515.954 892.084 516.509 890.609C517.064 889.134 517.324 888.048 517.086 888.195C516.366 888.64 515.147 891.696 515.138 893.08C515.131 894.122 515.322 894.428 516.098 894.623C517.102 894.875 525.792 892.927 526.705 892.245C527.639 891.548 529.911 887.046 531.999 881.757C533.126 878.899 534.657 875.415 535.401 874.016C536.144 872.617 536.698 871.472 536.633 871.472C536.569 871.472 531.847 876.441 526.141 882.515ZM595.96 873.181C595.964 874.814 596.75 876.967 597.627 877.746L598.488 878.51L598.253 876.156C598.036 873.982 597.175 872.276 596.297 872.276C596.11 872.276 595.959 872.683 595.96 873.181ZM563.639 880.42L562.916 881.727L563.744 880.721C564.479 879.83 564.806 879.113 564.477 879.113C564.414 879.113 564.037 879.701 563.639 880.42ZM560.239 881.519C558.802 882.833 557.755 884.948 557.755 886.54C557.755 887.516 557.854 887.558 560.168 887.558C562.045 887.558 562.759 887.38 563.385 886.754C564.313 885.826 564.448 883.85 563.629 883.17C563.321 882.915 562.847 882.169 562.575 881.513C562.303 880.856 561.962 880.319 561.817 880.319C561.672 880.319 560.962 880.859 560.239 881.519ZM1072.52 891.684C1072.32 892.198 1071.86 892.871 1071.49 893.179C1069.59 894.753 1073.23 901.571 1078.18 905.713L1080.15 907.36L1080.89 906.497C1081.77 905.487 1082.29 902.615 1081.89 900.972C1081.09 897.657 1077.34 893.059 1074.04 891.351C1072.93 890.779 1072.86 890.795 1072.52 891.684ZM242.374 897.11C240.231 898.578 236.052 902.09 237.257 901.411C238.008 900.988 244.557 896.409 245.078 895.943C246.143 894.991 244.317 895.779 242.374 897.11ZM602.891 896.915C601.827 898.018 600.493 900.427 600.946 900.427C601.224 900.427 604.472 895.939 604.31 895.778C604.22 895.688 603.581 896.199 602.891 896.915ZM519.797 899.857C519.342 901.042 519.583 903.438 520.291 904.765L520.996 906.087L521.527 903.094C521.82 901.448 521.937 899.903 521.788 899.661C521.381 899.002 520.075 899.131 519.797 899.857ZM1083.54 912.492C1083.88 913.156 1084.25 913.699 1084.37 913.699C1084.48 913.699 1084.29 913.156 1083.94 912.492C1083.6 911.829 1083.23 911.286 1083.12 911.286C1083.01 911.286 1083.2 911.829 1083.54 912.492ZM1085.8 916.413C1088.52 921.223 1097.49 936.036 1097.91 936.421C1098.37 936.84 1098.22 936.581 1094.31 929.986C1093 927.774 1090.34 923.296 1088.42 920.033C1086.49 916.77 1084.81 914.101 1084.7 914.101C1084.58 914.101 1085.08 915.142 1085.8 916.413ZM521.914 921.239C521.414 921.877 521.428 921.891 522.066 921.391C522.453 921.088 522.77 920.771 522.77 920.688C522.77 920.357 522.439 920.569 521.914 921.239ZM519.283 925.823C517.22 929.817 516.895 930.681 517.943 929.383C519.054 928.008 521.334 923.39 521.045 923.101C520.916 922.971 520.123 924.197 519.283 925.823ZM312.089 925.594C311.411 926.165 310.45 927.205 309.953 927.907C309.255 928.892 309.62 928.681 311.557 926.981C312.936 925.771 314.064 924.73 314.064 924.669C314.064 924.276 313.142 924.708 312.089 925.594ZM706.141 932.953C706.141 935.104 705.325 938.854 703.328 945.872C701.486 952.346 700.843 958.363 701.669 961.394C702.203 963.356 704.377 966.495 705.057 966.287C705.844 966.046 708.399 957.721 709.409 952.105C710.158 947.943 710.341 945.565 710.308 940.443C710.286 936.904 710.095 933.465 709.886 932.802C709.554 931.746 709.295 931.579 707.823 931.472L706.141 931.348V932.953ZM546.132 947.711C544.661 948.948 543.89 951.344 544.47 952.871C544.688 953.445 545.013 953.915 545.193 953.915C545.934 953.915 548.506 949.345 548.506 948.028C548.506 946.368 547.834 946.279 546.132 947.711ZM640.058 981.128C639.64 981.546 639.743 983.599 640.195 983.878C640.687 984.182 641.8 983.141 641.8 982.376C641.8 981.38 640.638 980.547 640.058 981.128ZM612.847 991.091C612.847 993.418 613.458 993.729 614.822 992.096C615.889 990.816 615.901 990.751 615.19 990.04C614.786 989.636 614.093 989.305 613.651 989.305C612.967 989.305 612.847 989.574 612.847 991.091ZM1132.14 997.751C1132.24 998.083 1133.4 1001.07 1134.73 1004.39C1136.06 1007.7 1138.18 1013.04 1139.45 1016.25C1143.19 1025.68 1146.31 1032.82 1149.34 1038.9C1152.25 1044.73 1158.14 1054.98 1158.43 1054.7C1158.51 1054.61 1154.3 1045.25 1149.06 1033.89C1143.82 1022.53 1139.22 1012.51 1138.83 1011.63C1136.55 1006.44 1131.81 996.598 1132.14 997.751ZM946.293 1017.56C946.398 1019.4 946.531 1019.69 947.319 1019.8C947.988 1019.89 948.224 1019.72 948.224 1019.15C948.224 1017.88 947.404 1015.93 946.767 1015.68C946.279 1015.5 946.193 1015.84 946.293 1017.56ZM541.728 1022.18C541.289 1023.21 541.299 1023.23 541.864 1022.51C542.2 1022.08 542.474 1021.58 542.474 1021.4C542.474 1020.79 542.201 1021.08 541.728 1022.18ZM537.464 1030.41C535.575 1034.27 534.039 1037.6 534.051 1037.8C534.062 1038 535.702 1034.94 537.694 1030.99C539.686 1027.04 541.222 1023.71 541.107 1023.6C540.993 1023.48 539.353 1026.55 537.464 1030.41ZM565.446 1044.25C564.966 1045.5 564.642 1046.6 564.725 1046.68C564.808 1046.76 565.268 1045.81 565.747 1044.55C566.227 1043.3 566.551 1042.21 566.468 1042.12C566.385 1042.04 565.925 1043 565.446 1044.25ZM563.845 1048.32C563.406 1049.35 563.416 1049.37 563.982 1048.65C564.317 1048.22 564.591 1047.72 564.591 1047.54C564.591 1046.93 564.319 1047.22 563.845 1048.32ZM295.663 1068.12C294.641 1069.76 295.352 1071.55 296.609 1070.51C297.272 1069.96 297.242 1067.68 296.568 1067.46C296.345 1067.38 295.938 1067.68 295.663 1068.12ZM321.81 1074.75C318.102 1078.39 315.21 1081.38 315.383 1081.39C315.555 1081.39 318.721 1078.41 322.42 1074.77C326.118 1071.12 329.01 1068.13 328.847 1068.13C328.685 1068.13 325.518 1071.11 321.81 1074.75ZM140.813 1079.29C140.26 1080.36 139.894 1082.82 140.177 1083.56C140.363 1084.04 140.948 1084.22 142.397 1084.22H144.365V1082.2C144.365 1080.73 144.151 1079.98 143.561 1079.39C142.569 1078.4 141.297 1078.35 140.813 1079.29ZM310.073 1084.05C308.548 1085.33 306.946 1088.35 306.583 1090.62L306.32 1092.26H308.222C309.836 1092.26 310.323 1092.06 311.45 1090.93C312.18 1090.2 312.994 1088.88 313.26 1087.99C313.707 1086.5 313.663 1086.26 312.674 1084.81C312.086 1083.94 311.548 1083.17 311.477 1083.1C311.407 1083.03 310.776 1083.46 310.073 1084.05ZM219.324 1110.46L218.558 1111.36L219.463 1110.6C220.313 1109.88 220.55 1109.55 220.229 1109.55C220.152 1109.55 219.745 1109.96 219.324 1110.46ZM207.836 1120.12C205.067 1122.82 202.221 1125.9 201.511 1126.95C199.863 1129.39 198.673 1132.01 198.661 1133.22C198.653 1134.13 198.742 1134.16 200.563 1133.89C202.969 1133.54 204.581 1132.55 206.809 1130.07C209.268 1127.34 215.192 1118.08 214.683 1117.76C214.456 1117.62 213.955 1116.99 213.57 1116.36L212.869 1115.2L207.836 1120.12ZM273.25 1128.91C273.109 1129.28 273.05 1130.27 273.12 1131.13C273.232 1132.48 273.387 1132.69 274.354 1132.8C275.343 1132.92 275.459 1132.8 275.459 1131.72C275.459 1130.19 273.65 1127.89 273.25 1128.91ZM322.161 1151.31C322.131 1151.6 321.383 1152.56 320.498 1153.43C319.238 1154.68 318.889 1155.33 318.889 1156.42C318.889 1158.18 319.662 1158.24 321.049 1156.59C322.141 1155.3 322.694 1153.3 322.397 1151.73C322.298 1151.2 322.191 1151.01 322.161 1151.31ZM488.839 1159.64C488.451 1160.65 488.566 1160.91 489.04 1160.09C489.275 1159.69 489.382 1159.27 489.278 1159.17C489.175 1159.07 488.977 1159.28 488.839 1159.64ZM487.231 1164.06C486.843 1165.07 486.957 1165.33 487.431 1164.52C487.666 1164.11 487.773 1163.7 487.67 1163.6C487.566 1163.49 487.368 1163.7 487.231 1164.06Z" fill="#D62839"/>
</svg>
