<svg width="1599" height="1599" viewBox="0 0 1599 1599" fill="none" xmlns="http://www.w3.org/2000/svg">
<path fill-rule="evenodd" clip-rule="evenodd" d="M916.135 1.70234C914.139 4.66603 915.434 8.30027 918.486 8.30027C920.471 8.30027 920.883 7.53829 920.583 4.42075C920.141 -0.181536 918.202 -1.36731 916.135 1.70234ZM905.498 10.9737C903.657 13.2422 901.467 17.978 900.63 21.4961C898.777 29.2914 898.73 57.1475 900.568 59.4131C902.818 62.1867 910.839 50.8065 913.023 41.7412C914.897 33.9619 915.534 16.3887 914.171 10.1145C913.19 5.60362 909.563 5.96213 905.498 10.9737ZM854.255 34.7877C853.961 35.7863 853.58 38.8632 853.409 41.6251C853.173 45.4306 853.596 46.776 855.154 47.1737C857.662 47.8138 860.023 41.1839 859.027 36.2957C858.307 32.7573 855.147 31.7587 854.255 34.7877ZM1224.17 38.4162C1223.77 41.4103 1223.11 45.6556 1222.7 47.8501C1222.28 50.0445 1222.45 51.8413 1223.06 51.8413C1224.1 51.8413 1226.93 39.5715 1226.93 35.0403C1226.93 30.6905 1224.85 33.229 1224.17 38.4162ZM675.263 89.9963C674.891 91.8236 675.125 95.066 675.784 97.2038C676.442 99.3403 678.328 112.703 679.974 126.899C683.68 158.883 685.574 169.932 688.799 178.39C691.564 185.643 696.568 192.295 697.966 190.576C698.455 189.977 699.036 182.984 699.26 175.038C699.632 161.772 699.281 158.901 694.962 139.96C692.376 128.613 689.921 115.738 689.507 111.347C688.499 100.625 686.694 93.8729 683.786 89.9397C680.572 85.5943 676.153 85.6234 675.263 89.9963ZM836.719 175.443C835.41 185.534 839.342 186.826 841.465 177.003C842.135 173.901 840.313 169.402 838.385 169.402C837.9 169.402 837.15 172.121 836.719 175.443ZM1000.47 177.611C999.692 183.553 1000.21 185.367 1002.7 185.367C1003.93 185.367 1004.4 183.554 1004.4 178.836C1004.4 170.634 1001.51 169.733 1000.47 177.611ZM1073.82 182.827C1071.64 186.219 1066.98 192.718 1063.47 197.268C1047.61 217.821 1038.86 231.635 1034.43 243.098C1032.81 247.312 1031.48 251.066 1031.48 251.444C1031.48 252.796 1034.49 251.988 1038.58 249.541C1046.03 245.078 1051.46 238.856 1059.73 225.286C1064.21 217.949 1069.55 209.721 1071.62 207.003C1080.91 194.739 1085.64 185.743 1085.64 180.308C1085.64 177.141 1085.12 176.659 1081.72 176.659C1078.51 176.659 1077.07 177.782 1073.82 182.827ZM819.721 207.596C817.233 211.292 816.903 224.916 818.945 239.611C820.352 249.73 820.701 257.226 820.135 265.113C819.287 276.911 821.474 287.861 824.433 286.647C827.1 285.551 829.055 274.74 828.969 261.564C828.907 251.927 829.501 246.409 831.238 240.519C833.926 231.406 834.26 224.257 832.329 217.151C829.716 207.535 823.125 202.54 819.721 207.596ZM1194.85 223.959C1192.69 228.259 1189.06 255.751 1190.96 253.413C1191.87 252.297 1196.42 225.669 1195.99 224.052C1195.72 223.065 1195.32 223.032 1194.85 223.959ZM246.669 244.381C248.817 246.708 250.325 247.506 250.607 246.464C251.305 243.883 248.498 240.513 245.693 240.566C243.381 240.608 243.455 240.901 246.669 244.381ZM536.957 250.679C536.957 252.613 537.742 253.582 539.312 253.582C540.881 253.582 541.667 252.613 541.667 250.679C541.667 248.744 540.881 247.776 539.312 247.776C537.742 247.776 536.957 248.744 536.957 250.679ZM1118.02 257.936C1116.4 260.137 1116.29 260.827 1117.54 260.792C1119.36 260.741 1123.32 257.433 1123.32 255.962C1123.32 253.962 1120.04 255.184 1118.02 257.936ZM277.922 313.731C277.922 316.047 282.301 320.344 284.66 320.344C286.998 320.344 286.436 317.462 283.515 314.458C280.329 311.181 277.922 310.868 277.922 313.731ZM602.893 318.117C602.893 320.883 603.737 326.27 604.768 330.09C607.055 338.561 616.826 358.401 618.195 357.357C618.74 356.942 619.536 358.568 619.963 360.97C620.392 363.372 621.229 365.337 621.825 365.337C623.279 365.337 623.193 362.897 621.611 359.251C620.624 356.98 620.677 355.981 621.829 355.103C622.933 354.263 623.001 353.423 622.078 352.022C621.38 350.964 619.631 344.873 618.193 338.487C615.004 324.333 613.289 320.05 609.234 316.118C604.644 311.668 602.893 312.22 602.893 318.117ZM394.935 350.028C394.023 352.961 395.38 355.177 398.089 355.177C400.653 355.177 401.107 352.307 398.962 349.662C397.08 347.343 395.733 347.465 394.935 350.028ZM1299.53 373.797C1297.34 376.772 1296.98 380.672 1298.76 382.028C1299.4 382.521 1299.93 382.25 1299.93 381.425C1299.93 380.6 1301.52 378.912 1303.46 377.674C1305.41 376.436 1307 374.459 1307 373.282C1307 370.234 1301.88 370.585 1299.53 373.797ZM775.282 377.674C774.179 383.089 775.674 388.843 778.036 388.283C780.775 387.633 782.656 379.15 780.705 376.251C778.488 372.959 776.114 373.582 775.282 377.674ZM144.872 387.833C144.872 389.47 145.699 390.067 147.522 389.749C148.979 389.493 150.171 388.631 150.171 387.833C150.171 387.035 148.979 386.173 147.522 385.917C145.699 385.599 144.872 386.196 144.872 387.833ZM599.361 390.01C599.361 391.945 600.146 392.913 601.716 392.913C603.285 392.913 604.071 391.945 604.071 390.01C604.071 388.076 603.285 387.107 601.716 387.107C600.146 387.107 599.361 388.076 599.361 390.01ZM1337.59 399.479C1336.77 400.695 1336.41 402.081 1336.8 402.556C1338 404.03 1343.2 401.765 1343.92 399.457C1344.85 396.476 1339.6 396.495 1337.59 399.479ZM678.284 401.771C678.229 405.415 685.402 438.473 686.577 439.985C689.432 443.661 688.838 437.699 684.743 421.567C679.906 402.515 678.346 397.733 678.284 401.771ZM327.374 404.625C327.374 406.906 328.009 407.517 330.012 407.165C333.925 406.476 334.269 401.621 330.404 401.621C328.125 401.621 327.374 402.366 327.374 404.625ZM78.6065 409.768C77.0605 411.673 77.721 412.861 81.3569 414.717C84.058 416.096 85.2895 416.141 86.3021 414.892C87.1511 413.846 87.2358 412.733 86.5306 411.884C84.9304 409.953 79.6085 408.533 78.6065 409.768ZM295.8 421.466C296.005 423.599 296.769 425.586 297.499 425.881C299.436 426.663 300.562 421.911 298.992 419.579C296.852 416.4 295.396 417.261 295.8 421.466ZM1038.02 423.715C1035.43 428.267 1035.71 429.197 1039.64 429.197C1042.05 429.197 1043.32 428.328 1043.84 426.307C1045.4 420.231 1041.09 418.309 1038.02 423.715ZM969.881 444.486C967.561 450.481 967.368 453.412 969.243 454.181C970.253 454.596 970.253 455.509 969.243 457.836C968.503 459.541 967.916 462.123 967.938 463.571C967.973 465.76 968.237 465.635 969.496 462.841C970.328 460.989 972.297 458.687 973.869 457.725C976.321 456.225 976.778 454.793 977.081 447.666C977.416 439.775 977.294 439.357 974.649 439.357C972.622 439.357 971.327 440.75 969.881 444.486ZM61.2747 465.982C61.2747 468.609 65.1095 472.738 67.5492 472.738C70.2608 472.738 70.0124 470.915 66.7921 467.185C63.7072 463.613 61.2747 463.084 61.2747 465.982ZM644.103 468.989C644.103 471.428 644.75 472.738 645.952 472.738C647.179 472.738 647.673 471.68 647.424 469.586C646.868 464.94 644.103 464.442 644.103 468.989ZM40.3753 477.615C36.9642 479.697 37.0384 480.558 40.9039 483.679C43.0751 485.433 44.2255 485.715 44.5339 484.571C44.7836 483.651 46.0022 482.898 47.2432 482.898C50.2586 482.898 50.0985 480.676 46.8829 477.901C43.957 475.374 44.0394 475.377 40.3753 477.615ZM144.543 476.531C142.674 478.835 143.893 481.133 147.449 482.01C151.427 482.989 154.411 480.991 152.467 478.647C150.867 476.716 145.545 475.295 144.543 476.531ZM82.6898 482.519C83.2809 486.301 87.1782 486.724 87.1782 483.004C87.1782 480.927 86.4222 479.995 84.7373 479.995C83.0524 479.995 82.4178 480.777 82.6898 482.519ZM439.23 492.281C439.23 495.886 442.124 498.863 445.628 498.863C446.951 498.863 447.472 497.426 447.472 493.783C447.472 488.946 447.276 488.703 443.351 488.703C439.756 488.703 439.23 489.16 439.23 492.281ZM176.09 493.42C177.001 497.319 181.993 503.217 184.382 503.217C187.167 503.217 186.321 498.934 182.641 494.397C178.397 489.166 174.977 488.655 176.09 493.42ZM861.257 512.536C860.214 517.661 861.071 521.256 863.47 521.825C866.319 522.501 868.993 519.519 868.993 515.667C868.993 508.95 862.52 506.332 861.257 512.536ZM503.394 516.291C502.576 517.924 505.478 522.085 507.438 522.085C509.105 522.085 508.976 520.479 507.06 517.368C505.27 514.462 504.434 514.217 503.394 516.291ZM779.743 531.083C778.966 532.041 778.33 535.633 778.33 539.066C778.33 544.698 778.608 545.307 781.177 545.307C786.763 545.307 787.75 543.976 787.75 536.443C787.75 529.633 787.614 529.342 784.453 529.342C782.64 529.342 780.52 530.125 779.743 531.083ZM792.46 547.484C792.46 548.681 792.905 549.661 793.447 549.661C793.991 549.661 795.078 551.398 795.863 553.52C797.248 557.269 796.276 559.723 793.373 559.798C790.531 559.873 787.093 578.688 789.921 578.688C790.951 578.688 794.567 599.344 798.431 627.309C801.258 647.76 801.474 648.354 806.046 648.354C808.287 648.354 810.121 647.701 810.121 646.902C810.121 646.104 808.796 645.451 807.177 645.451C804.319 645.451 804.234 645.159 804.234 635.313C804.234 627.691 803.245 621.48 800.245 610.277C798.051 602.083 795.599 592.103 794.794 588.099C793.403 581.166 793.48 580.553 796.429 575.197C798.893 570.721 799.524 567.854 799.524 561.138C799.524 556.497 798.909 551.037 798.157 549.003C796.688 545.025 792.46 543.897 792.46 547.484ZM415.962 562.958C412.911 566.719 415.049 569.98 420.565 569.98C422.42 569.98 422.826 569.157 422.529 565.989C422.116 561.56 418.464 559.874 415.962 562.958ZM825.907 586.689C824.988 591.202 827.291 594.948 830.622 594.36C833.88 593.787 834.656 587.521 831.79 584.938C828.618 582.08 826.731 582.642 825.907 586.689ZM301.079 585.462C299.263 587.698 300.391 590.483 302.931 590.038C306.264 589.451 307.317 584.494 304.108 584.494C302.873 584.494 301.51 584.929 301.079 585.462ZM714.787 590.662C714.829 594.424 717.318 599.007 719.316 599.007C720.559 599.007 720.375 595.479 718.809 589.21C718.007 586.003 714.747 587.18 714.787 590.662ZM184.905 592.425C184.905 595.405 189.5 598.277 191.104 596.3C191.968 595.235 191.886 594.102 190.833 592.537C188.92 589.697 184.905 589.62 184.905 592.425ZM731.266 595.329C727.751 600.551 735.877 611.742 740.56 608.131C742.873 606.347 743.649 598.081 741.766 595.284C739.94 592.572 733.103 592.601 731.266 595.329ZM496.822 606.673C494.807 608.579 492.215 613.92 492.215 616.162C492.215 618.232 499.741 622.229 503.637 622.229C509.558 622.229 511.529 616.679 508.509 608.509C507.408 605.531 506.323 604.821 502.916 604.859C500.592 604.884 497.85 605.701 496.822 606.673ZM1042.86 605.781C1041.43 607.549 1042.05 610.618 1043.84 610.618C1044.82 610.618 1045.61 609.328 1045.61 607.715C1045.61 604.824 1044.35 603.94 1042.86 605.781ZM849.483 609.778C848.289 615.644 849.308 618.601 852.525 618.601C854.859 618.601 855.529 617.773 855.831 614.522C856.519 607.135 850.879 602.92 849.483 609.778ZM620.935 611.49C619.829 615.042 625.34 618.344 626.964 615.103C628.125 612.788 626.27 609.167 623.924 609.167C622.677 609.167 621.333 610.212 620.935 611.49ZM909.74 611.463C908.161 616.534 908.952 619.326 911.969 619.326C914.255 619.326 914.912 618.582 914.912 615.988C914.912 610.431 911.1 607.096 909.74 611.463ZM1270.5 623.68C1270.5 627.249 1270.95 628.141 1272.56 627.759C1273.86 627.45 1274.62 625.945 1274.62 623.68C1274.62 621.416 1273.86 619.911 1272.56 619.602C1270.95 619.22 1270.5 620.112 1270.5 623.68ZM522.613 624.406C521.61 627.12 521.61 628.949 522.613 631.663C523.749 634.734 524.752 635.291 529.141 635.291C533.525 635.291 534.437 634.786 535.038 632.026C536.647 624.621 534.249 620.778 528.017 620.778C524.827 620.778 523.667 621.557 522.613 624.406ZM857.218 631.994C857.218 633.573 871.325 642.566 873.702 642.503C875.03 642.467 874.884 641.9 873.114 640.212C867.835 635.181 857.218 629.692 857.218 631.994ZM598.597 637.508C597.821 640 599.844 642.486 602.681 642.526C605.017 642.56 603.852 636.133 601.418 635.561C600.283 635.296 599.013 636.171 598.597 637.508ZM613.916 638.92C612.788 642.541 614.419 645.451 617.574 645.451C620.101 645.451 620.555 644.788 620.555 641.097C620.555 637.406 620.101 636.743 617.574 636.743C615.934 636.743 614.288 637.722 613.916 638.92ZM500.636 639.479C499.762 640.161 499.239 641.947 499.473 643.448C499.794 645.495 500.923 646.177 503.989 646.177C507.055 646.177 508.184 645.495 508.504 643.448C508.954 640.564 506.938 638.239 503.989 638.239C503.017 638.239 501.508 638.797 500.636 639.479ZM837.622 646.196C836.664 649.271 839.314 652.708 842.644 652.708C844.971 652.708 845.444 651.971 845.444 648.354C845.444 644.473 845.055 644 841.875 644C839.775 644 838.024 644.904 837.622 646.196ZM856.041 651.155C856.041 653.415 856.792 654.159 859.07 654.159C862.936 654.159 862.592 649.304 858.678 648.615C856.675 648.264 856.041 648.875 856.041 651.155ZM538.429 650.766C536.318 651.817 536.614 654.779 539.11 657.563C542.472 661.313 544.022 660.467 544.022 654.885C544.022 649.795 542.553 648.715 538.429 650.766ZM886.065 650.759C882.561 651.865 880.767 655.516 880.767 661.538C880.767 665.072 881.397 667.208 882.607 667.782C885.17 668.994 884.332 670.179 874.105 679.801C854.706 698.053 850.667 701.406 848.682 700.908C845.709 700.162 846.149 697.05 849.545 694.811C851.153 693.75 852.738 691.837 853.068 690.56C853.396 689.282 856.187 686.737 859.268 684.901C865.516 681.179 875.786 670.757 874.622 669.322C874.209 668.812 869.484 671.724 864.122 675.792C854.177 683.336 849.433 684.892 848.225 681.01C847.356 678.22 845.323 678.259 840.387 681.16C836.557 683.412 836.219 683.352 830.044 679.361C824.354 675.682 822.393 675.217 811.981 675.073C801.357 674.927 800.107 674.616 798.147 671.632C796.962 669.828 795.992 666.79 795.992 664.883C795.992 662.769 795.303 661.416 794.226 661.416C793.254 661.416 792.46 660.74 792.46 659.914C792.46 658.944 791.728 658.882 790.399 659.74C789.266 660.471 785.461 661.82 781.943 662.735C774.159 664.763 772.443 666.371 772.443 671.641C772.443 675.017 773.158 675.995 776.665 677.422C783.045 680.017 788.927 687.011 788.927 691.999C788.927 695.099 788.477 695.946 787.161 695.323C786.19 694.863 785.395 695.13 785.395 695.917C785.395 696.702 786.19 698.157 787.161 699.152C789.695 701.744 789.412 706.409 786.721 706.409C783.971 706.409 777.2 703.494 768.326 698.49C759.315 693.41 757.259 693.967 753.616 702.478C749.127 712.966 745.007 715.183 742.944 708.223C742.293 706.027 741.534 703.439 741.26 702.469C740.521 699.867 733.632 702.964 730.343 707.378C728.883 709.339 726.771 714.78 725.65 719.469C723.655 727.809 723.456 728.082 716.53 731.922C706.817 737.31 697.301 741.503 692.378 742.565C688.508 743.399 688.234 743.828 687.895 749.604C687.695 752.987 687.071 755.755 686.507 755.755C685.306 755.755 681.789 751.643 681.762 750.209C681.706 747.227 665.761 729.63 663.115 729.63C660.703 729.63 661.635 731.265 670.301 742.224C674.995 748.163 678.989 753.545 679.175 754.186C679.361 754.826 678.162 756.442 676.511 757.775C673.593 760.132 673.477 760.096 672.376 756.526C671.459 753.555 670.449 752.852 667.093 752.852C662.508 752.852 662.406 753.173 662.891 766.16C663.153 773.154 661.275 776.074 656.517 776.074C655.039 776.074 631.094 757.054 625.853 751.717C621.428 747.212 605.284 733.985 604.211 733.985C601.541 733.985 603.039 736.272 608.482 740.511C611.554 742.903 618.044 748.77 622.904 753.545C638.404 768.778 641.527 771.533 647.588 775.319C652.995 778.695 655.303 781.88 652.345 781.88C651.698 781.88 651.168 783.147 651.168 784.697C651.168 786.247 650.638 787.917 649.99 788.411C648.031 789.903 648.66 791.676 651.462 792.559C652.919 793.019 657.157 795.752 660.882 798.634C668.669 804.662 669.378 807.743 664.054 812.416C661.005 815.091 660.571 816.22 661.209 819.801C661.833 823.303 661.328 824.759 658.265 828.286C655.045 831.994 654.197 832.334 651.686 830.923C650.1 830.032 648.408 829.826 647.925 830.463C647.442 831.101 647.733 831.926 648.573 832.294C649.413 832.663 651.782 834.859 653.839 837.175C657.316 841.088 657.396 841.386 654.985 841.386C653.126 841.386 652.171 842.518 651.619 845.377C651.195 847.573 650.01 851.164 648.988 853.36L647.128 857.351H633.252C624.966 857.351 619.377 857.924 619.377 858.775C619.377 859.557 620.731 860.618 622.387 861.129C625.886 862.211 643.796 861.108 646.598 859.638C647.929 858.94 648.694 859.538 649.137 861.622C649.669 864.129 649.222 864.608 646.347 864.608C644.466 864.608 641.998 865.751 640.865 867.147C639.265 869.12 637.226 869.592 631.74 869.256C626.614 868.944 625.159 869.237 626.442 870.323C627.413 871.146 630.481 871.83 633.261 871.843C636.612 871.857 639.139 872.811 640.762 874.676L643.21 877.486L640.67 882.554C639.058 885.767 638.38 888.854 638.814 890.991C639.438 894.053 638.376 895.05 627.191 901.906C619.631 906.541 610.759 910.645 604.204 912.542C595.519 915.056 592.989 916.421 590.634 919.873C589.042 922.205 587.192 924.114 586.524 924.114C584.525 924.114 576.99 928.913 576.99 930.188C576.99 931.918 578.508 931.654 583.594 929.034C588.645 926.433 597.59 925.43 595.771 927.67C591.852 932.494 598.241 938.111 605.688 936.389C609.387 935.533 609.958 935.773 609.958 938.176C609.958 944.823 617.604 946.609 624.353 941.536C629.231 937.87 630.936 937.815 628.296 941.41C626.667 943.629 626.519 944.803 627.566 947.215C628.289 948.878 629.694 950.238 630.689 950.238C632.297 950.238 632.292 950.489 630.646 952.518C627.481 956.42 628.374 958.947 632.918 958.947C637.63 958.947 638.158 960.761 634.507 964.404C629.19 969.709 627.619 972.103 627.619 974.912C627.619 978.997 634.677 978.822 640.793 974.584L645.457 971.351L647.564 974.794C649.472 977.915 650.032 978.08 653.538 976.573C659.51 974.007 670.773 974.402 671.647 977.208C672.933 981.337 672.407 983.128 669.418 984.807C664.616 987.504 666.023 989.033 673.495 989.241C679.476 989.408 680.708 988.993 681.816 986.44C683.824 981.816 688.16 983.251 688.642 988.7C688.953 992.215 688.737 992.704 687.523 991.24C682.105 984.701 675.246 995.419 679.865 1003.21C682.321 1007.35 680.226 1011.84 668.603 1027.36C649.97 1052.24 644.819 1060.02 646.251 1061.11C646.817 1061.54 648.511 1060.12 650.016 1057.95C651.52 1055.78 657.598 1047.48 663.521 1039.5C669.445 1031.51 676.035 1022.57 678.166 1019.62C680.297 1016.67 683.173 1014.06 684.555 1013.82C685.937 1013.57 688.352 1010.92 689.921 1007.93C691.489 1004.94 693.505 1002.49 694.4 1002.49C695.294 1002.49 697.56 1001.51 699.434 1000.32C703.549 997.692 705.365 999.882 702.411 1003.91C701.325 1005.38 700.611 1007.85 700.821 1009.38C701.087 1011.32 699.053 1014.38 694.142 1019.43C686.723 1027.05 674.727 1042.44 671.556 1048.41C666.902 1057.17 672.39 1052.13 687.59 1033.68L704.071 1013.69L706.172 1018.24C708.391 1023.04 710.887 1024.59 709.444 1020.27C707.436 1014.26 707.57 1012.66 710.373 1009.2C713.177 1005.74 717.591 1003.71 726.523 1001.77C730.616 1000.88 730.667 1000.93 733.882 1009.66C737.196 1018.67 738.002 1024.26 735.988 1024.26C735.304 1024.26 735.133 1028.15 735.557 1034.05C736.448 1046.49 738.205 1050.93 738.284 1040.95L738.34 1033.69L746.855 1030.42C751.744 1028.54 756.528 1027.54 758.088 1028.07C761.502 1029.23 766.308 1023.89 770.17 1014.63C771.666 1011.04 774.661 1006.19 776.828 1003.85C780.433 999.946 781.512 999.585 789.557 999.585C798.026 999.585 798.347 999.71 798.347 1003.04C798.347 1008.29 800.561 1009.51 809.24 1009.02C814.1 1008.75 817.499 1009.2 817.985 1010.17C818.422 1011.04 818.156 1012.01 817.394 1012.32C816.632 1012.63 816.008 1014.43 816.008 1016.31C816.008 1018.19 815.478 1020.14 814.831 1020.63C812.243 1022.6 813.612 1028.24 817.115 1030.03C819.018 1031 821.104 1031.39 821.748 1030.9C822.431 1030.38 823.16 1032.6 823.491 1036.2C825.596 1059.09 826.937 1068.51 828.892 1074.14C830.989 1080.16 833.203 1083.37 834.321 1081.99C834.593 1081.66 832.943 1072.29 830.654 1061.17C828.366 1050.05 826.264 1036.05 825.983 1030.07C825.416 1017.97 823.657 1011.2 821.084 1011.2C816.748 1011.2 823.869 997.335 828.907 995.971C835.262 994.251 841.325 1000.36 853.904 1021.16C858.425 1028.64 863.039 1035.05 864.157 1035.41C866.103 1036.03 867.038 1038.45 873.158 1058.64C876.638 1070.12 888.297 1099.35 891.277 1104.06C897.058 1113.2 894.509 1105.18 876.987 1059.09C872.19 1046.47 870.778 1041.65 871.16 1039.18C871.311 1038.21 870.408 1036.62 869.153 1035.66C867.899 1034.69 867.115 1033.12 867.41 1032.18C867.704 1031.23 864.13 1021.2 859.465 1009.88C853.416 995.215 850.442 989.415 849.096 989.665C845.106 990.403 840.724 987.806 838.989 983.671C836.404 977.507 836.64 976.868 842.539 974.09C846.857 972.058 849.954 971.755 858.729 972.507C864.699 973.018 870.774 973.843 872.231 974.343C874.61 975.158 874.88 974.737 874.88 970.219C874.88 965.418 874.211 963.983 865.578 950.238C862.045 944.611 861.735 941.238 864.278 936.083C867.143 930.276 868.497 930.128 869.373 935.529C869.886 938.696 870.88 939.892 873.546 940.548C875.572 941.048 880.336 945.205 884.864 950.427C889.165 955.386 893.73 959.54 895.008 959.656C897.682 959.899 907.848 969.909 907.848 972.299C907.848 973.177 909.203 977.309 910.859 981.482C913.718 988.687 914.134 989.103 919.176 989.804C922.794 990.306 925.999 992.042 929.245 995.257C933.042 999.019 934.215 999.567 935.038 997.965C936.867 994.405 936.196 991.53 931.67 983.546C925.939 973.433 920.44 968.811 914.744 969.318C911.059 969.646 909.566 968.742 904.595 963.166C899.434 957.376 898.831 956.089 899.327 951.921C899.635 949.331 899.01 944.381 897.939 940.921C896.314 935.677 895.146 934.231 890.936 932.249C884.814 929.368 878.896 922.514 876.481 915.51C873.621 907.217 871.206 888.893 871.585 878.372C871.935 868.705 871.955 868.653 876.646 865.447C882.96 861.13 891.785 858.254 895.34 859.354C901.311 861.2 903.171 858.471 903.575 847.28C903.733 842.87 904.234 842.13 907.862 840.94C910.523 840.066 917.847 840.226 928.671 841.394C947.107 843.381 954.494 842.656 958.854 838.429C961.317 836.04 962.316 835.863 965.522 837.241C970.413 839.342 979.234 838.097 990.268 833.749C998.775 830.396 999.583 830.332 1012.27 832.008C1021.41 833.215 1026.04 834.474 1027.37 836.116C1029.94 839.287 1042.33 839.426 1044.43 836.306C1045.38 834.898 1048.24 834.056 1052.52 833.924L1059.15 833.72L1053.26 832.701C1050.02 832.141 1045.29 830.541 1042.75 829.148C1039.57 827.411 1036.8 826.917 1033.92 827.577C1026.27 829.331 998.416 827.474 997.208 825.132C996.816 824.371 994.298 823.386 991.615 822.943C988.842 822.485 986.736 821.351 986.736 820.319C986.736 818.464 987.302 818.178 998.443 814.415C1001.97 813.223 1005.41 811.711 1006.1 811.052C1006.78 810.395 1008.9 809.396 1010.8 808.833C1016.25 807.223 1020.88 802.464 1020.88 798.472C1020.88 795.2 1020.45 794.942 1014.96 794.942C1010.78 794.942 1008.83 795.583 1008.36 797.119C1007.98 798.316 1006.41 799.296 1004.86 799.296C1003.31 799.296 1002.04 799.949 1002.04 800.747C1002.04 801.546 1003.37 802.199 1004.99 802.199C1009.57 802.199 1008.47 804.727 1002.41 808.129C992.48 813.704 987.433 815.534 980.26 816.16C976.374 816.498 969.877 818.078 965.821 819.672C947.431 826.895 940.71 827.704 932.28 823.702C927.769 821.561 928.239 819.051 933.716 816.006C936.287 814.577 939.284 812.191 940.374 810.705C943.119 806.968 946.955 807.329 950.235 811.633C951.757 813.628 953.438 815.261 953.973 815.261C955.695 815.261 955.01 812.546 952.584 809.76C950.253 807.083 950.361 806.984 961.121 801.871C973.898 795.8 1005.62 781.485 1023.24 773.842C1030.04 770.891 1036.23 767.849 1037.01 767.08C1037.79 766.309 1039.91 765.803 1041.72 765.951C1049.28 766.572 1053.49 765.735 1057.33 762.845C1061.26 759.891 1061.32 759.711 1059.1 757.656C1056.12 754.904 1047.21 756.209 1044.57 759.784C1043.52 761.203 1037.9 764.414 1032.07 766.917C1026.24 769.423 1016.97 773.412 1011.46 775.782C1005.96 778.154 993.93 783.094 984.735 786.761C975.54 790.428 963.883 795.787 958.832 798.669C944.791 806.681 945.109 806.81 937.088 789.862C933.311 781.88 929.564 775.348 928.764 775.348C926.277 775.348 926.395 780.229 929.007 785.441C930.413 788.244 931.354 792.206 931.157 794.498C930.854 798.033 931.468 798.949 935.812 801.435C938.563 803.012 940.802 804.644 940.785 805.064C940.724 806.621 929.51 815.101 926.177 816.113C924.277 816.689 921.362 818.036 919.701 819.106C915.531 821.789 909.614 823.014 906.09 821.924C902.253 820.737 902.372 819.527 906.67 815.987C910.615 812.739 910.921 811.585 908.599 808.723C907.716 807.634 906.623 803.273 906.17 799.029C905.655 794.218 903.966 788.659 901.68 784.258C898.71 778.541 898.276 776.753 899.389 774.824C900.144 773.517 902.123 769.289 903.787 765.43C906.089 760.089 907.286 758.639 908.8 759.356C911.604 760.684 931.882 764.322 932.476 763.604C933.52 762.343 931.446 761.527 920.322 758.829C911.85 756.775 907.976 755.1 905.677 752.498C898.647 744.545 884.349 737.533 863.379 731.754L853.642 729.072L850.136 720.421L846.63 711.771L850.555 707.072C852.715 704.487 856.289 701.242 858.498 699.86C865.897 695.234 876.589 685.654 882.655 678.217C885.961 674.165 890.56 668.86 892.876 666.426C897.237 661.846 899.569 654.985 897.592 652.548C896.197 650.828 889.257 649.75 886.065 650.759ZM844.192 656.447C842.916 658.343 842.941 658.96 844.342 660.053C846.215 661.513 850.154 661.882 850.154 660.595C850.154 658.833 847.663 654.159 846.724 654.159C846.179 654.159 845.039 655.188 844.192 656.447ZM548.731 660.69C548.731 662.949 549.399 664.319 550.497 664.319C551.596 664.319 552.264 662.949 552.264 660.69C552.264 658.432 551.596 657.062 550.497 657.062C549.399 657.062 548.731 658.432 548.731 660.69ZM740.653 660.508C740.653 663.312 746.515 675.93 747.817 675.93C749.43 675.93 749.214 675.131 745.25 666.474C741.462 658.198 740.653 657.149 740.653 660.508ZM631.151 669.313C631.151 671.491 633.265 673.808 634.201 672.654C635.023 671.642 633.397 667.222 632.203 667.222C631.625 667.222 631.151 668.162 631.151 669.313ZM1321.13 670.124C1319.7 671.262 1319.87 671.535 1322.01 671.554C1323.47 671.565 1324.66 670.923 1324.66 670.124C1324.66 668.306 1323.41 668.306 1321.13 670.124ZM896.957 674.027C894.298 674.883 893.935 686.089 896.566 686.089C897.484 686.089 899.062 686.48 900.071 686.957C902.806 688.252 904.788 682.005 903.237 676.978C902.045 673.111 901.132 672.683 896.957 674.027ZM1507.83 680.753C1505.96 682.439 1505.9 683.068 1507.31 685.889C1508.62 688.487 1509.83 689.024 1513.64 688.686C1517.59 688.335 1518.41 687.708 1518.74 684.802C1518.96 682.896 1518.43 680.785 1517.57 680.107C1515.2 678.258 1510.24 678.587 1507.83 680.753ZM820.92 687.567L827.598 689.15L827.399 695.49C827.244 700.409 827.837 702.664 830.047 705.564C832.923 709.339 832.789 711.77 829.783 710.349C828.883 709.924 827.467 706.577 826.634 702.912C825.635 698.51 824.474 696.247 823.214 696.243C822.165 696.24 819.681 695.015 817.693 693.522C811.462 688.838 809.243 688.494 807.73 691.978C806.96 693.754 806.697 697.23 807.123 700.03C807.716 703.925 808.436 704.957 810.564 704.957C812.198 704.957 813.849 706.323 814.765 708.435C816.038 711.365 817.501 712.073 824.089 712.941C828.386 713.507 833.247 714.825 834.888 715.87C836.53 716.915 839.821 718.221 842.202 718.773C845.45 719.523 847.13 721.019 848.917 724.754C851.581 730.318 851.56 730.343 842.918 731.765C835.244 733.028 831.315 731.575 831.315 727.474C831.315 723.279 828.681 720.565 825.198 721.173C823.165 721.529 822.491 722.577 822.512 725.349L822.54 729.05L818.391 726.51C816.109 725.112 812.764 722.468 810.958 720.632C806.983 716.591 803.844 706.58 805.69 703.827C806.598 702.469 806.289 701.099 804.542 698.747C801.403 694.517 800.216 689.532 802.023 688.158C803.99 686.658 810.346 685.089 812.476 685.578C813.447 685.801 817.247 686.696 820.92 687.567ZM627.282 688.441C625.708 690.381 626.436 695.793 628.595 698.201C633.175 703.311 638.707 699.87 638.006 692.345C637.669 688.712 637.108 688.22 632.875 687.835C630.261 687.599 627.744 687.87 627.282 688.441ZM695.91 694.695C695.91 696.764 699.407 700.603 701.292 700.603C702.302 700.603 702.975 699.152 702.975 696.975C702.975 693.911 702.425 693.346 699.442 693.346C697.5 693.346 695.91 693.953 695.91 694.695ZM1275.21 694.798C1275.21 696.632 1277.61 696.632 1279.92 694.798C1281.29 693.702 1280.97 693.385 1278.44 693.368C1276.66 693.356 1275.21 693.999 1275.21 694.798ZM646.458 699.118C646.458 700.993 652.216 705.601 653.138 704.464C653.533 703.977 652.589 702.278 651.041 700.687C647.915 697.48 646.458 696.98 646.458 699.118ZM1206.33 704.677C1199.97 707.258 1197.78 708.668 1199.59 709.014C1202.06 709.484 1221.04 702.581 1221.04 701.21C1221.04 699.728 1215.01 701.149 1206.33 704.677ZM694.007 705.599C692.7 709.797 694.115 712.932 697.535 713.416C702.012 714.048 703.353 712.178 701.87 707.371C701.008 704.577 699.844 703.506 697.668 703.506C696.013 703.506 694.365 704.448 694.007 705.599ZM648.037 708.662C647.185 711.401 648.733 715.326 651.042 716.275C652.066 716.696 652.398 715.432 652.134 712.118C651.716 706.85 649.25 704.768 648.037 708.662ZM1186.6 709.88C1183.84 712.471 1183.96 716.568 1186.8 716.568C1190.56 716.568 1192.79 714.948 1192.79 712.214C1192.79 710.789 1191.95 709.226 1190.92 708.741C1188.66 707.671 1189.08 707.561 1186.6 709.88ZM845.444 713.665C845.444 717.105 844.629 717.226 839.467 714.551C836.225 712.87 835.956 712.414 837.86 711.816C843.148 710.157 845.444 710.718 845.444 713.665ZM876.843 711.731C874.538 714.57 878.068 720.922 881.949 720.922C884.671 720.922 886.163 715.707 884.252 712.87C882.796 710.706 878.241 710.005 876.843 711.731ZM666.474 715.831C666.474 720.307 668.39 725.276 670.116 725.276C670.804 725.276 671.164 722.638 670.957 719.121C670.693 714.63 670.038 712.834 668.535 712.482C666.995 712.122 666.474 712.967 666.474 715.831ZM632.421 717.173C626.347 725.141 630.335 737.108 639.954 739.783C645.517 741.328 648.364 739.417 650.722 732.551C652.741 726.668 652.02 721.552 648.521 716.931C644.929 712.188 636.119 712.321 632.421 717.173ZM1147.75 723.941C1144.14 726.533 1145.5 728.363 1150.68 727.899C1154.33 727.574 1155.78 726.767 1156.07 724.913C1156.37 722.973 1155.67 722.384 1153.13 722.417C1151.31 722.442 1148.88 723.127 1147.75 723.941ZM971.135 741.357C970.002 742.172 969.074 743.784 969.074 744.942C969.074 746.129 967.969 747.047 966.536 747.047C963.505 747.047 956.122 753.653 956.122 756.366C956.122 761.529 980.444 764.124 986.089 759.563C989.266 756.997 990.156 752.852 987.529 752.852C984.678 752.852 980.559 746.103 981.406 742.816C982.104 740.105 981.716 739.794 977.689 739.834C975.218 739.858 972.267 740.543 971.135 741.357ZM69.5167 746.951C69.5167 748.6 69.9146 749.958 70.3998 749.97C70.8849 749.98 72.5215 750.398 74.0357 750.897C76.4211 751.685 76.7355 751.343 76.3905 748.339C75.8466 743.601 69.5167 742.324 69.5167 746.951ZM552.702 766.867C552.123 769.706 552.486 771.234 554.081 772.672C556.752 775.078 557.186 775.086 559.761 772.765C561.444 771.248 561.598 770.184 560.604 766.96C558.907 761.456 553.815 761.395 552.702 766.867ZM619.377 769.042C619.377 771.98 619.246 772.025 617.224 769.768C614.818 767.084 613.49 766.703 613.49 768.697C613.49 770.26 631.687 786.234 633.469 786.234C637.298 786.234 633.013 780.867 625.264 775.958C621.545 773.602 620.58 772.438 622.026 772.054C624.966 771.274 624.71 765.915 621.732 765.915C620.106 765.915 619.377 766.883 619.377 769.042ZM531.288 775.711C531.523 777.242 532.96 778.434 534.907 778.71C538.616 779.238 539.037 777.965 536.074 775.192C533.162 772.468 530.827 772.72 531.288 775.711ZM1086.23 777.526C1084.99 779.999 1086.8 781.88 1090.42 781.88C1093.1 781.88 1093.88 781.222 1093.88 778.977C1093.88 776.732 1093.1 776.074 1090.42 776.074C1088.51 776.074 1086.63 776.727 1086.23 777.526ZM547.554 783.331C549.837 785.15 551.086 785.15 551.086 783.331C551.086 782.533 549.893 781.89 548.437 781.901C546.295 781.92 546.126 782.193 547.554 783.331ZM569.283 791.933C569.654 792.673 571.937 794.025 574.357 794.938C579.191 796.761 579.144 796.737 593.474 804.003C598.978 806.794 604.839 809.47 606.498 809.952C608.156 810.432 611.07 812.476 612.974 814.493C617.801 819.609 625.588 819.666 628.278 814.605C630.033 811.305 630.014 810.784 628.011 807.395C625.369 802.922 621.646 802.614 619.579 806.695C618.336 809.147 617.189 809.607 613.702 809.052C609.176 808.334 595.441 802.52 586.481 797.53C575.571 791.454 567.77 788.916 569.283 791.933ZM275.764 798.758C276.102 800.92 277.244 801.473 281.372 801.473C284.224 801.473 286.748 800.766 286.981 799.901C287.216 799.036 286.73 798.219 285.903 798.084C285.075 797.951 282.36 797.437 279.868 796.942C275.882 796.151 275.391 796.367 275.764 798.758ZM1355.27 824.768C1342.64 825.756 1331.12 826.633 1329.66 826.718C1326.64 826.894 1326.01 831.294 1328.62 833.968C1332.2 837.625 1348.77 838.689 1365.03 836.306C1390.23 832.611 1391.24 832.326 1390.81 829.02C1390.6 827.44 1389.57 825.331 1388.52 824.332C1386.38 822.3 1386.9 822.293 1355.27 824.768ZM1104.77 829.406C1098.07 829.667 1092.7 830.499 1092.7 831.277C1092.7 832.135 1102.96 832.677 1119.2 832.677C1133.77 832.677 1145.69 832.122 1145.69 831.441C1145.69 830.09 1129.09 828.162 1121.55 828.638C1118.96 828.802 1111.41 829.148 1104.77 829.406ZM1091.79 837.84C1090.35 839.082 1089.17 841.368 1089.17 842.92C1089.17 844.772 1088.36 845.74 1086.82 845.74C1085.52 845.74 1084.46 846.393 1084.46 847.191C1084.46 847.99 1085.74 848.643 1087.31 848.643C1088.87 848.643 1090.37 849.46 1090.64 850.457C1091 851.791 1097.81 852.535 1116.35 853.265C1130.22 853.812 1145.61 854.709 1150.55 855.259C1158.73 856.169 1159.75 855.984 1162.03 853.177C1165.02 849.49 1165.2 846.78 1162.63 844.151C1161.21 842.696 1157.42 842.357 1147.62 842.804C1125.55 843.807 1121.97 843.471 1111.78 839.442C1100.6 835.027 1095.52 834.619 1091.79 837.84ZM926.066 853.061C925.249 854.689 927.484 858.802 929.185 858.802C929.754 858.802 930.219 857.169 930.219 855.174C930.219 851.489 927.538 850.124 926.066 853.061ZM588.889 855.737C587.716 856.679 587.457 858.676 587.983 862.725C588.512 866.805 588.174 869.354 586.778 871.811C584.918 875.084 584.97 875.365 588.044 878.625C592.416 883.261 597.556 883.102 600.133 878.253C601.872 874.982 601.922 874.069 600.51 871.359C599.614 869.641 598.592 865.297 598.239 861.705C597.646 855.705 597.307 855.143 594.062 854.795C592.12 854.587 589.792 855.011 588.889 855.737ZM614.667 867.355C614.667 869.047 618.107 870.655 619.483 869.606C621.559 868.026 620.52 866.059 617.611 866.059C615.992 866.059 614.667 866.642 614.667 867.355ZM1011.46 872.489C1011.46 873.97 1012.53 874.767 1014.5 874.767C1018.19 874.767 1017.79 871.359 1014.02 870.674C1012.32 870.367 1011.46 870.976 1011.46 872.489ZM257.342 880.023C254.192 883.906 255.598 887.047 260.72 887.565C266.22 888.123 267.711 886.605 266.674 881.509C266.061 878.493 265.18 877.67 262.572 877.67C260.746 877.67 258.392 878.729 257.342 880.023ZM1586.64 884.927C1591.91 886.58 1599 886.58 1599 884.927C1599 884.085 1595.66 883.548 1591.05 883.647C1584.91 883.78 1583.91 884.07 1586.64 884.927ZM1014.7 885.902C1012.11 886.769 1011.98 892.621 1014.49 895.709C1015.51 896.963 1017.66 897.989 1019.27 897.989C1021.98 897.989 1022.17 897.544 1021.83 891.821C1021.46 885.435 1019.92 884.156 1014.7 885.902ZM876.843 897.506C875.392 899.292 876.04 906.324 877.823 908.149C878.795 909.143 879.589 910.856 879.589 911.954C879.589 913.054 880.384 913.954 881.356 913.954C882.355 913.954 883.122 912.654 883.122 910.956C883.122 909.307 883.714 906.593 884.439 904.924C885.547 902.372 885.313 901.47 882.968 899.246C880.017 896.449 878.133 895.914 876.843 897.506ZM456.303 911.051C455.291 913.069 456.424 914.916 459.228 915.821C461.122 916.43 461.601 915.88 461.601 913.092C461.601 910.603 460.945 909.6 459.316 909.6C458.058 909.6 456.703 910.253 456.303 911.051ZM482.505 917.22C481.706 919.899 482.764 922.662 484.589 922.662C486.988 922.662 487.895 919.911 486.285 917.519C484.539 914.927 483.221 914.822 482.505 917.22ZM104.84 938.627C104.84 942.196 105.291 943.087 106.9 942.706C108.2 942.397 108.961 940.892 108.961 938.627C108.961 936.363 108.2 934.858 106.9 934.549C105.291 934.167 104.84 935.059 104.84 938.627ZM480.735 972.328C476.737 974.706 477.544 976.363 482.699 976.363C488.452 976.363 491.037 975.19 491.037 972.579C491.037 970.141 484.674 969.987 480.735 972.328ZM900.783 978.54C900.783 983.216 901.063 983.62 904.315 983.62C907.217 983.62 907.848 983.023 907.848 980.282C907.848 976.279 905.804 973.46 902.903 973.46C901.266 973.46 900.783 974.616 900.783 978.54ZM370.939 985.797C370.939 987.006 371.986 987.974 373.294 987.974C374.602 987.974 375.649 987.006 375.649 985.797C375.649 984.588 374.602 983.62 373.294 983.62C371.986 983.62 370.939 984.588 370.939 985.797ZM396.071 996.019C395.688 997.251 395.73 998.697 396.164 999.234C397.129 1000.42 400.648 997.851 401.286 995.491C401.983 992.91 396.878 993.428 396.071 996.019ZM238.329 1013.33C237.927 1014.62 237.954 1016.11 238.389 1016.65C239.385 1017.88 243.268 1014.96 242.956 1013.21C242.532 1010.86 239.073 1010.94 238.329 1013.33ZM793.637 1012.54C793.637 1013.28 794.469 1014.92 795.487 1016.17C796.505 1017.43 797.83 1018.45 798.43 1018.45C799.986 1018.45 799.785 1015 798.111 1012.94C796.437 1010.87 793.637 1010.63 793.637 1012.54ZM612.862 1022.86C610.918 1025.51 610.856 1026.38 612.257 1031.2C613.118 1034.17 614.41 1037.08 615.128 1037.66C617.096 1039.27 622.423 1038.98 625.798 1037.09C629.346 1035.09 629.913 1028.32 626.963 1023.13C624.465 1018.73 616.011 1018.57 612.862 1022.86ZM254.079 1024.43C252.299 1026.06 250.841 1028.65 250.841 1030.18C250.841 1032.64 251.736 1032.97 258.404 1032.97C264.823 1032.97 266.515 1032.4 269.589 1029.21C275.441 1023.14 274.449 1021.35 265.265 1021.4C259.128 1021.44 256.58 1022.13 254.079 1024.43ZM684.417 1044.09C682.23 1045.18 680.507 1049.83 681.323 1052.46C681.745 1053.81 683.431 1054.74 685.469 1054.74C688.073 1054.74 689.181 1053.84 690.052 1051.01C691.856 1045.17 691.461 1043.11 688.551 1043.24C687.095 1043.3 685.233 1043.69 684.417 1044.09ZM796.581 1044.44C790.7 1045.3 790.693 1045.31 791.027 1050.33C791.209 1053.09 792.136 1057.27 793.087 1059.62C794.037 1061.97 794.814 1066.44 794.814 1069.56C794.814 1072.97 795.284 1074.87 795.992 1074.33C796.639 1073.84 797.169 1072.23 797.169 1070.75C797.169 1069.27 798.567 1064.75 800.276 1060.68C803.16 1053.83 805.05 1042.83 803.253 1043.35C802.821 1043.48 799.819 1043.97 796.581 1044.44ZM627.191 1054.21C622.216 1060.34 623.204 1066.7 629.647 1070.02L633.743 1072.13L628.806 1079.4C621.586 1090.03 625.804 1088.45 634.468 1077.28C640.47 1069.55 641.748 1067.03 641.748 1062.96C641.748 1051.74 633.311 1046.67 627.191 1054.21ZM775.025 1056.57C775.321 1061.6 775.814 1062.72 777.742 1062.72C779.633 1062.72 780.097 1061.75 780.097 1057.81C780.097 1054 779.484 1052.61 777.38 1051.65C774.783 1050.47 774.68 1050.68 775.025 1056.57ZM598.4 1067.44C598.666 1070.29 599.524 1071.56 601.421 1071.89C603.675 1072.29 604.071 1071.69 604.071 1067.9C604.071 1064.09 603.636 1063.45 601.049 1063.45C598.447 1063.45 598.079 1064 598.4 1067.44ZM654.655 1075.84C652.483 1078.6 651.207 1080.86 651.82 1080.86C653.662 1080.85 660.587 1075.2 660.587 1073.71C660.587 1070.37 658.316 1071.18 654.655 1075.84ZM128.603 1077.23C126.679 1079.23 124.336 1080.86 123.397 1080.86C121.412 1080.86 117.791 1085.39 117.791 1087.87C117.791 1088.83 119.506 1089.57 121.73 1089.57C125.925 1089.57 129.566 1085.98 129.566 1081.84C129.566 1080.42 130.497 1079.41 131.795 1079.41C134.031 1079.41 135.905 1076.1 134.586 1074.47C133.364 1072.97 132.198 1073.5 128.603 1077.23ZM577.278 1082.68C573.356 1088.72 574.99 1098.28 579.945 1098.28C583.636 1098.28 588.764 1094.34 588.764 1091.51C588.764 1090.36 587.955 1087.5 586.967 1085.14C585.615 1081.92 584.34 1080.86 581.813 1080.86C579.966 1080.86 577.926 1081.68 577.278 1082.68ZM947.239 1090.66C948.767 1098.38 956.343 1103.63 957.057 1097.47C957.502 1093.64 952.292 1086.67 948.986 1086.67C946.81 1086.67 946.561 1087.24 947.239 1090.66ZM739.839 1090.49C738.93 1093.41 740.824 1097.39 743.428 1098.02C744.933 1098.39 745.362 1097.34 745.362 1093.3C745.362 1089.06 744.928 1088.12 742.971 1088.12C741.655 1088.12 740.246 1089.19 739.839 1090.49ZM1032.66 1089.34C1032.66 1090.02 1033.72 1091.75 1035.01 1093.2C1037.6 1096.09 1038.02 1095.25 1036.15 1090.93C1034.92 1088.1 1032.66 1087.07 1032.66 1089.34ZM642.049 1099.02C639.391 1101.83 635.197 1107.54 632.732 1111.72C630.265 1115.9 627.046 1120.95 625.577 1122.94C621.578 1128.35 622.364 1129.92 626.63 1125.04C634.129 1116.44 649.977 1096.07 649.984 1095.01C649.999 1092.52 646.575 1094.25 642.049 1099.02ZM824.945 1096.29C824.117 1098.94 826.119 1102.63 828.389 1102.63C830.255 1102.63 831.464 1099 830.564 1096.1C829.659 1093.2 825.868 1093.32 824.945 1096.29ZM1285.18 1096.89C1283.93 1099.38 1287.03 1102.63 1290.66 1102.63C1294.11 1102.63 1294.6 1101.74 1293.33 1097.67C1292.53 1095.08 1286.38 1094.5 1285.18 1096.89ZM602.928 1113.79C595.548 1123.12 590.066 1130.98 590.746 1131.26C591.425 1131.54 594.569 1128.6 597.731 1124.72C613.311 1105.63 619.746 1096.83 618.126 1096.83C617.147 1096.83 610.309 1104.46 602.928 1113.79ZM0.833578 1100.7C-0.884295 1102.81 0.197768 1105.53 2.75633 1105.53C5.43498 1105.53 8.29025 1103.14 8.29025 1100.89C8.29025 1099.49 1.94507 1099.33 0.833578 1100.7ZM939.638 1106.14C939.638 1110.41 941.16 1112.79 943.885 1112.79C947.245 1112.79 947.556 1109.84 944.55 1106.49C941.91 1103.54 939.638 1103.38 939.638 1106.14ZM36.5486 1109.16C36.5486 1111.82 37.1762 1112.79 38.9035 1112.79C40.6308 1112.79 41.2583 1111.82 41.2583 1109.16C41.2583 1106.5 40.6308 1105.53 38.9035 1105.53C37.1762 1105.53 36.5486 1106.5 36.5486 1109.16ZM15.3548 1111.34C13.7359 1111.98 10.6887 1112.57 8.58461 1112.65C4.72852 1112.79 3.01418 1115.69 6.78432 1115.69C10.3637 1115.69 21.242 1112.17 21.242 1111.01C21.242 1109.66 19.3298 1109.77 15.3548 1111.34ZM828.936 1120.17C827.124 1129.48 827.966 1140.96 830.737 1144.74C833.445 1148.43 834.073 1148.37 837.801 1144.11C840.359 1141.19 840.765 1139.72 840.216 1135.4C839.854 1132.55 839.268 1127.92 838.915 1125.13C838.28 1120.11 833.94 1112.79 831.591 1112.79C830.92 1112.79 829.726 1116.11 828.936 1120.17ZM154.856 1119.15C150.309 1120.08 143.95 1122.54 140.727 1124.61C134.968 1128.3 130.532 1134.79 132.284 1136.95C133.766 1138.77 151.489 1134.9 156.728 1131.61C164.577 1126.67 170.346 1116.91 165.183 1117.3C164.05 1117.39 159.402 1118.22 154.856 1119.15ZM924.332 1124.13C924.332 1125.88 931.268 1133.75 932.008 1132.84C932.357 1132.41 931.09 1130.01 929.192 1127.5C925.716 1122.92 924.332 1121.96 924.332 1124.13ZM956.122 1124.22C956.122 1126.97 961.062 1139.03 963.883 1143.16C966.67 1147.25 974.599 1151.46 976.073 1149.64C977.461 1147.93 968.238 1129.39 964.417 1126.22C960.45 1122.92 956.122 1121.88 956.122 1124.22ZM1351.74 1127.91C1351.74 1130.35 1352.39 1131.66 1353.59 1131.66C1354.81 1131.66 1355.31 1130.6 1355.06 1128.51C1354.5 1123.86 1351.74 1123.36 1351.74 1127.91ZM903.138 1133.87C903.138 1137.12 910.504 1153.51 913.091 1156.02C916.206 1159.04 923.828 1161.79 925.017 1160.33C926.32 1158.72 920.147 1142.2 916.608 1137.83C913.543 1134.04 911.844 1133.11 907.966 1133.11C905.31 1133.11 903.138 1133.45 903.138 1133.87ZM1414.14 1137.17C1409.52 1138.02 1408.43 1140.37 1412.66 1140.37C1414.7 1140.37 1416.71 1139.67 1417.14 1138.82C1418.16 1136.78 1417.67 1136.52 1414.14 1137.17ZM1002.75 1142.18C1003.21 1143.18 1004.16 1144.9 1004.86 1146.01C1005.56 1147.11 1006.14 1148.75 1006.15 1149.64C1006.16 1150.52 1007.97 1155.36 1010.18 1160.37C1015.07 1171.51 1020.82 1178.1 1025.63 1178.1C1028.69 1178.1 1029.12 1177.59 1029.12 1173.95C1029.12 1171.67 1027.74 1167.26 1026.04 1164.16C1022.05 1156.83 1011.27 1144.57 1009.51 1145.36C1008.76 1145.7 1007.22 1144.71 1006.09 1143.17C1003.8 1140.05 1001.43 1139.35 1002.75 1142.18ZM493.085 1155.53C491.959 1156.55 491.037 1157.8 491.037 1158.31C491.037 1160.03 494.272 1159.25 495.66 1157.19C497.517 1154.43 495.643 1153.23 493.085 1155.53ZM598.59 1157.12C598.206 1158.35 598.183 1159.72 598.538 1160.16C599.709 1161.6 604.071 1159.08 604.071 1156.96C604.071 1154.16 599.468 1154.3 598.59 1157.12ZM223.76 1160.58C223.76 1164.12 224.262 1165.04 226.193 1165.04C228.151 1165.04 228.554 1164.26 228.253 1161.06C228.03 1158.66 227.063 1156.89 225.821 1156.6C224.221 1156.23 223.76 1157.12 223.76 1160.58ZM829.158 1160.66C826.736 1167.41 827.708 1170.05 832.796 1170.57C836.952 1171 837.202 1170.78 837.202 1166.83C837.202 1164.33 836.105 1161.37 834.477 1159.49C831.023 1155.49 831.015 1155.49 829.158 1160.66ZM1098.59 1159.86C1098.59 1164.08 1101.67 1168.26 1104.31 1167.64C1107.17 1166.96 1107.29 1162.7 1104.55 1159.32C1101.24 1155.24 1098.59 1155.48 1098.59 1159.86ZM963.187 1181.71C963.187 1186.2 972.543 1210.36 976.706 1216.63C980.963 1223.03 988.31 1228.9 992.067 1228.9C994.54 1228.9 993.811 1225.75 987.767 1210.35C982.176 1196.1 970.481 1179.55 965.995 1179.55C964.297 1179.55 963.187 1180.41 963.187 1181.71ZM522.306 1197.29C519.772 1201.75 520.002 1203.5 523.369 1205.39C525.94 1206.83 526.537 1206.55 528.668 1202.86C532.132 1196.86 531.794 1194.07 527.605 1194.07C525.358 1194.07 523.494 1195.2 522.306 1197.29ZM564.823 1196.49C564.391 1197.02 564.038 1198.65 564.038 1200.12C564.038 1201.99 564.911 1202.78 566.981 1202.78C570.117 1202.78 570.848 1200.14 568.512 1197.26C566.912 1195.29 565.958 1195.09 564.823 1196.49ZM593.903 1197.22C589.961 1199.57 588.107 1204.93 589.722 1209.29C593.019 1218.21 605.248 1209.57 605.248 1198.33C605.248 1196.03 604.441 1195.54 600.833 1195.62C598.405 1195.67 595.286 1196.39 593.903 1197.22ZM1427.58 1204.78C1426.62 1207.84 1427.96 1210.03 1430.78 1210.03C1432.56 1210.03 1433.05 1209.22 1432.77 1206.78C1432.33 1202.99 1428.58 1201.54 1427.58 1204.78ZM247.981 1216.67C245.185 1220.12 245.952 1227.45 249.11 1227.45C251.661 1227.45 257.906 1220.14 257.906 1217.16C257.906 1214.97 257.058 1214.39 253.868 1214.39C251.649 1214.39 249 1215.41 247.981 1216.67ZM1447.41 1219.83C1441.41 1221.88 1436.51 1224.15 1436.51 1224.89C1436.51 1226.44 1440.88 1225.48 1452.12 1221.46C1456.49 1219.9 1460.06 1217.99 1460.06 1217.23C1460.06 1215.47 1460.37 1215.41 1447.41 1219.83ZM493.368 1252.88C492.549 1254.1 492.206 1255.5 492.607 1255.99C493.463 1257.05 496.924 1253.8 496.924 1251.95C496.924 1249.95 495.005 1250.45 493.368 1252.88ZM613.49 1258.48C613.49 1264.7 615.835 1267.19 620.506 1265.92C624.547 1264.83 625.119 1261.84 622.254 1256.8C621.066 1254.71 619.202 1253.57 616.955 1253.57C613.804 1253.57 613.49 1254.02 613.49 1258.48ZM916.307 1266.11C916.511 1268.21 917.871 1270.91 919.328 1272.09C921.839 1274.14 921.977 1274.06 921.977 1270.55C921.977 1266.83 919.295 1262.28 917.105 1262.28C916.461 1262.28 916.102 1264 916.307 1266.11ZM477.247 1273.49C470.37 1281.98 468.421 1285.15 469.537 1286C470.101 1286.43 473.617 1282.97 477.351 1278.31C481.177 1273.53 483.609 1269.43 482.922 1268.91C482.253 1268.4 479.7 1270.46 477.247 1273.49ZM600.833 1269.05C600.024 1269.45 599.361 1271.36 599.361 1273.29C599.361 1277.73 603.412 1278.12 605.261 1273.86C607.263 1269.25 605.115 1266.92 600.833 1269.05ZM959.861 1273.39C960.102 1275.98 961.037 1277.68 962.392 1278C964.128 1278.41 964.467 1277.71 964.158 1274.4C963.917 1271.81 962.982 1270.1 961.627 1269.79C959.891 1269.38 959.552 1270.08 959.861 1273.39ZM1019.7 1272.37C1019.7 1278.22 1026.22 1286 1028.09 1282.37C1029.51 1279.61 1029.41 1279.09 1026.68 1274.82C1024.34 1271.14 1019.7 1269.52 1019.7 1272.37ZM1171.59 1278.47C1171.59 1283.06 1186.59 1303.28 1193.03 1307.39C1198.98 1311.18 1199.85 1310.94 1199.85 1305.46C1199.84 1298.07 1196.09 1292.24 1186.17 1284.22C1177.43 1277.14 1171.59 1274.84 1171.59 1278.47ZM1389.12 1284.17C1386.23 1286.25 1386.56 1288.41 1389.77 1288.41C1392.45 1288.41 1395.3 1286.01 1395.3 1283.76C1395.3 1282.15 1391.6 1282.39 1389.12 1284.17ZM1100.95 1299.9C1100.95 1303.21 1102.56 1305.82 1104.6 1305.82C1107.42 1305.82 1107.45 1304.05 1104.68 1300.97C1102.27 1298.28 1100.95 1297.9 1100.95 1299.9ZM479.263 1317.28C479.263 1321.84 482.175 1324.43 483.286 1320.85C484.701 1316.31 484.009 1313.08 481.618 1313.08C479.806 1313.08 479.263 1314.05 479.263 1317.28ZM989.091 1338.89C989.091 1339.52 990.128 1341.64 991.395 1343.61C1000.86 1358.31 1006.66 1369.22 1006.12 1371.31C1005.11 1375.22 1008 1381.04 1011.76 1382.66C1016.15 1384.54 1017.35 1383.65 1017.35 1378.5C1017.35 1373.47 1013.26 1366.78 1010.18 1366.78C1008.92 1366.78 1006.98 1364.96 1005.85 1362.73C1004.73 1360.51 1000.89 1354.01 997.333 1348.3C991.305 1338.63 989.091 1336.1 989.091 1338.89ZM1343.55 1380.93C1343.61 1382.01 1351.7 1390.35 1362.22 1400.16C1365.49 1403.21 1367.52 1406.18 1367.3 1407.59C1366.68 1411.54 1372.49 1418.54 1377.76 1420.19L1382.63 1421.71L1381.95 1416.38C1381.19 1410.4 1375.56 1403.41 1370.46 1402.12C1367.85 1401.45 1358.22 1392.92 1348.49 1382.65C1345.78 1379.79 1343.45 1378.98 1343.55 1380.93ZM458.14 1401.4C456.145 1407.34 456.919 1412.4 459.902 1412.93C462.94 1413.46 465.477 1408.06 464.936 1402.21C464.372 1396.11 460.089 1395.6 458.14 1401.4ZM459.078 1460.49C456.177 1462.37 448.153 1474.59 439.482 1490.33C434.924 1498.61 424.822 1523.4 422.403 1532.25C421.419 1535.84 420.431 1541.7 420.209 1545.26C419.698 1553.41 422.375 1554.71 427.225 1548.67C432.844 1541.68 462.375 1470.35 461.248 1466.48C460.97 1465.53 461.243 1463.55 461.856 1462.08C463.367 1458.47 462.749 1458.11 459.078 1460.49ZM602.893 1471.28C602.893 1472.89 603.678 1474.18 604.659 1474.18C605.64 1474.18 606.425 1472.89 606.425 1471.28C606.425 1469.67 605.64 1468.38 604.659 1468.38C603.678 1468.38 602.893 1469.67 602.893 1471.28ZM430.988 1482.16C430.988 1484.83 431.616 1485.79 433.343 1485.79C435.07 1485.79 435.698 1484.83 435.698 1482.16C435.698 1479.5 435.07 1478.54 433.343 1478.54C431.616 1478.54 430.988 1479.5 430.988 1482.16ZM423.924 1485.9C423.924 1489.36 424.384 1490.25 425.984 1489.88C427.226 1489.59 428.193 1487.82 428.417 1485.42C428.717 1482.22 428.314 1481.44 426.356 1481.44C424.425 1481.44 423.924 1482.36 423.924 1485.9ZM362.697 1490.15C362.697 1492.08 363.482 1493.05 365.052 1493.05C366.621 1493.05 367.407 1492.08 367.407 1490.15C367.407 1488.21 366.621 1487.24 365.052 1487.24C363.482 1487.24 362.697 1488.21 362.697 1490.15ZM1040.9 1493.45C1040.9 1496.74 1044.5 1501.76 1046.85 1501.76C1049.48 1501.76 1050.06 1496.22 1047.73 1493.34C1045.85 1491.03 1040.9 1491.11 1040.9 1493.45ZM398.437 1507.93C395.911 1511.32 392.337 1516.54 390.494 1519.54C388.651 1522.53 386.168 1524.98 384.974 1524.98C381.376 1524.98 378.004 1530.73 378.004 1536.87C378.004 1540.93 378.495 1542.4 379.86 1542.4C382.835 1542.4 388.301 1534.64 389.666 1528.48C390.358 1525.36 392.395 1520.84 394.195 1518.45C399.886 1510.87 405.325 1501.76 404.156 1501.76C403.536 1501.76 400.964 1504.53 398.437 1507.93ZM302.103 1526.68C296.032 1535 293.697 1539.49 295.443 1539.49C296.76 1539.49 309.713 1522.14 309.713 1520.38C309.713 1517.59 307.242 1519.63 302.103 1526.68ZM558.923 1531.08C558.55 1532.85 558.517 1534.62 558.85 1535.03C559.612 1535.97 561.641 1532.13 561.665 1529.7C561.695 1526.64 559.645 1527.68 558.923 1531.08ZM382.419 1550.34C381.286 1552.26 380.359 1554.78 380.359 1555.94C380.359 1558.8 384.042 1560.37 385.308 1558.05C387.982 1553.15 388.729 1550.71 388.139 1548.81C387.183 1545.74 384.746 1546.39 382.419 1550.34ZM979.377 1585.49C975.256 1586.81 978.729 1599 983.228 1599C985.499 1599 986.958 1592.65 985.657 1588.44C984.466 1584.57 983.552 1584.14 979.377 1585.49Z" fill="#FFD685"/>
</svg>
